<svg width="174" height="38" viewBox="0 0 174 38" fill="none" xmlns="http://www.w3.org/2000/svg">
<path fill-rule="evenodd" clip-rule="evenodd" d="M13.7217 0.722737C14.1768 0.275714 14.8008 0 15.4892 0H23.0576C24.4508 0 25.5803 1.12949 25.5803 2.52278V10.0911C25.5803 11.4844 24.4508 12.6139 23.0576 12.6139C17.4845 12.6139 12.9665 17.1317 12.9665 22.7048L12.9664 25.228V35.3189C12.9664 36.7122 11.8369 37.8417 10.4437 37.8417H2.87532C1.48203 37.8417 0.352539 36.7122 0.352539 35.3189L0.35254 27.7506C0.35254 27.4631 0.400608 27.1869 0.489146 26.9296C0.489908 26.9273 0.487487 26.9254 0.485479 26.9266C0.483379 26.9278 0.480905 26.9257 0.4819 26.9234L0.552277 26.7651C0.563143 26.7395 0.574419 26.7141 0.586097 26.689L1.23551 25.228L12.6978 2.24165C12.8765 1.8832 13.0873 1.54167 13.3277 1.22124C13.4156 1.07557 13.5178 0.93951 13.6323 0.815L13.7076 0.714632C13.7104 0.710878 13.7163 0.714 13.7148 0.718439C13.7134 0.722564 13.7185 0.725792 13.7217 0.722737ZM26.9679 12.6139L26.4035 13.2723C25.8977 13.7337 25.5803 14.3981 25.5803 15.1367V25.2278V35.3189C25.5803 36.7122 26.7098 37.8417 28.1031 37.8417H35.6715C37.0647 37.8417 38.1942 36.7122 38.1942 35.3189V25.2278V19.1731L38.1942 15.1365L38.1942 15.1328C38.1962 13.7498 39.3112 12.6276 40.6914 12.6139H44.7535H48.2853C49.6786 12.6139 50.8081 11.4844 50.8081 10.0911V2.52278C50.8081 1.12949 49.6786 0 48.2853 0H40.717C40.0783 0 39.4951 0.237321 39.0507 0.628588L38.1943 1.32446L26.9679 12.6139ZM50.7431 25.3578C47.2599 25.3578 44.4362 28.1816 44.4362 31.6648C44.4362 35.148 47.2599 37.9717 50.7431 37.9717C54.2263 37.9717 57.05 35.148 57.05 31.6648C57.05 28.1816 54.2263 25.3578 50.7431 25.3578Z" fill="black"/>
<path d="M73.6117 36.5299C74.0849 36.5299 74.4546 36.3894 74.7207 36.1085C74.9869 35.8128 75.12 35.4209 75.12 34.933V10.2026H75.253L85.7218 34.7777C86.0915 35.6649 86.7199 36.1085 87.6071 36.1085C88.4795 36.1085 89.1079 35.6575 89.4924 34.7555L99.9612 10.2026H100.094V34.933C100.094 35.4209 100.227 35.8128 100.493 36.1085C100.76 36.3894 101.129 36.5299 101.602 36.5299C102.076 36.5299 102.445 36.3894 102.711 36.1085C102.978 35.8128 103.111 35.4209 103.111 34.933V5.8776C103.111 5.25657 102.926 4.76862 102.556 4.41374C102.187 4.04408 101.699 3.85925 101.092 3.85925C100.545 3.85925 100.087 3.99972 99.7172 4.28067C99.3623 4.54682 99.0592 4.97563 98.8078 5.56709L87.6736 31.8722H87.5406L76.362 5.56709C76.1106 4.97563 75.8149 4.54682 75.4748 4.28067C75.1347 3.99972 74.6911 3.85925 74.144 3.85925C73.523 3.85925 73.0277 4.04408 72.658 4.41374C72.2883 4.78341 72.1035 5.27136 72.1035 5.8776V34.933C72.1035 35.4209 72.2366 35.8128 72.5027 36.1085C72.7689 36.3894 73.1386 36.5299 73.6117 36.5299Z" fill="black"/>
<path d="M110.208 8.51698C110.77 8.51698 111.251 8.32476 111.65 7.94031C112.064 7.54108 112.271 7.06052 112.271 6.49863C112.271 5.93675 112.064 5.46358 111.65 5.07914C111.251 4.6799 110.77 4.48028 110.208 4.48028C109.661 4.48028 109.181 4.6799 108.767 5.07914C108.367 5.46358 108.168 5.93675 108.168 6.49863C108.168 7.06052 108.367 7.54108 108.767 7.94031C109.181 8.32476 109.661 8.51698 110.208 8.51698ZM110.208 36.5743C110.667 36.5743 111.044 36.419 111.339 36.1085C111.635 35.798 111.783 35.3988 111.783 34.9108V14.3724C111.783 13.8697 111.635 13.4704 111.339 13.1747C111.044 12.8642 110.667 12.7089 110.208 12.7089C109.75 12.7089 109.373 12.8642 109.077 13.1747C108.781 13.4704 108.633 13.8697 108.633 14.3724V34.9108C108.633 35.3988 108.781 35.798 109.077 36.1085C109.373 36.419 109.75 36.5743 110.208 36.5743Z" fill="black"/>
<path d="M118.392 36.5743C118.851 36.5743 119.228 36.419 119.524 36.1085C119.819 35.798 119.967 35.3988 119.967 34.9108V21.9135C119.967 20.1687 120.396 18.6975 121.254 17.4998C122.126 16.3021 123.457 15.7032 125.246 15.7032C125.778 15.7032 126.2 15.6958 126.51 15.681C126.836 15.6514 127.102 15.5775 127.309 15.4592C127.678 15.2374 127.863 14.8678 127.863 14.3502C127.863 14.0989 127.811 13.8771 127.708 13.6848C127.619 13.4926 127.486 13.33 127.309 13.1969C127.072 13.0342 126.791 12.916 126.466 12.842C126.155 12.7533 125.793 12.7089 125.379 12.7089C124.122 12.7089 122.984 13.123 121.963 13.951C120.943 14.7643 120.241 15.8511 119.856 17.2114H119.79V14.3059C119.79 13.8179 119.649 13.4335 119.368 13.1525C119.087 12.8568 118.733 12.7089 118.304 12.7089C117.86 12.7089 117.498 12.8568 117.217 13.1525C116.951 13.4335 116.818 13.8179 116.818 14.3059V34.9108C116.818 35.3988 116.958 35.798 117.239 36.1085C117.535 36.419 117.919 36.5743 118.392 36.5743Z" fill="black"/>
<path d="M132.055 36.5743C132.514 36.5743 132.891 36.419 133.186 36.1085C133.482 35.798 133.63 35.3988 133.63 34.9108V21.9135C133.63 20.1687 134.059 18.6975 134.916 17.4998C135.789 16.3021 137.12 15.7032 138.909 15.7032C139.441 15.7032 139.862 15.6958 140.173 15.681C140.498 15.6514 140.764 15.5775 140.971 15.4592C141.341 15.2374 141.526 14.8678 141.526 14.3502C141.526 14.0989 141.474 13.8771 141.371 13.6848C141.282 13.4926 141.149 13.33 140.971 13.1969C140.735 13.0342 140.454 12.916 140.129 12.842C139.818 12.7533 139.456 12.7089 139.042 12.7089C137.785 12.7089 136.646 13.123 135.626 13.951C134.606 14.7643 133.903 15.8511 133.519 17.2114H133.452V14.3059C133.452 13.8179 133.312 13.4335 133.031 13.1525C132.75 12.8568 132.395 12.7089 131.966 12.7089C131.523 12.7089 131.161 12.8568 130.88 13.1525C130.613 13.4335 130.48 13.8179 130.48 14.3059V34.9108C130.48 35.3988 130.621 35.798 130.902 36.1085C131.198 36.419 131.582 36.5743 132.055 36.5743Z" fill="black"/>
<path d="M152.283 36.5743C154.412 36.5743 156.268 36.0937 157.85 35.1326C159.432 34.1567 160.667 32.7742 161.554 30.985C162.441 29.181 162.885 27.0666 162.885 24.6416C162.885 22.2018 162.441 20.0874 161.554 18.2982C160.667 16.5091 159.432 15.1339 157.85 14.1728C156.268 13.1969 154.412 12.7089 152.283 12.7089C150.169 12.7089 148.313 13.1969 146.716 14.1728C145.134 15.1339 143.899 16.5091 143.012 18.2982C142.14 20.0874 141.703 22.2018 141.703 24.6416C141.703 27.0814 142.14 29.1958 143.012 30.985C143.899 32.7742 145.134 34.1567 146.716 35.1326C148.313 36.0937 150.169 36.5743 152.283 36.5743ZM152.283 33.8462C150.79 33.8462 149.488 33.4839 148.379 32.7594C147.285 32.02 146.428 30.9628 145.807 29.5877C145.2 28.2125 144.897 26.5638 144.897 24.6416C144.897 22.7194 145.2 21.0707 145.807 19.6955C146.428 18.3204 147.293 17.2706 148.402 16.546C149.511 15.8067 150.804 15.437 152.283 15.437C153.776 15.437 155.078 15.8067 156.187 16.546C157.296 17.2706 158.153 18.3204 158.76 19.6955C159.381 21.0707 159.691 22.7194 159.691 24.6416C159.691 26.5491 159.381 28.1977 158.76 29.5877C158.153 30.9628 157.296 32.02 156.187 32.7594C155.078 33.4839 153.776 33.8462 152.283 33.8462Z" fill="black"/>
<path d="M165.247 11.0899C165.41 11.0899 165.539 11.0492 165.635 10.9679C165.731 10.8866 165.809 10.7553 165.868 10.5742L166.472 8.85529H169.533L170.143 10.5798C170.199 10.7572 170.274 10.8866 170.371 10.9679C170.47 11.0492 170.603 11.0899 170.77 11.0899C170.947 11.0899 171.095 11.0363 171.213 10.9291C171.332 10.8219 171.391 10.687 171.391 10.5243C171.391 10.4208 171.365 10.2988 171.313 10.1583L168.873 3.55434C168.792 3.33255 168.681 3.1699 168.541 3.06639C168.4 2.96289 168.223 2.91113 168.008 2.91113C167.79 2.91113 167.611 2.96473 167.471 3.07194C167.33 3.17544 167.219 3.33809 167.138 3.55989L164.704 10.1583C164.652 10.3025 164.626 10.4245 164.626 10.5243C164.626 10.6907 164.683 10.8274 164.798 10.9346C164.912 11.0381 165.062 11.0899 165.247 11.0899ZM166.788 7.84057L167.981 4.33063H168.014L169.217 7.84057H166.788Z" fill="black"/>
<path d="M173.071 11.0899C173.263 11.0899 173.415 11.0326 173.526 10.918C173.636 10.8034 173.692 10.6463 173.692 10.4467V3.55434C173.692 3.35473 173.636 3.19762 173.526 3.08303C173.415 2.96843 173.263 2.91113 173.071 2.91113C172.879 2.91113 172.727 2.96843 172.616 3.08303C172.505 3.19762 172.45 3.35473 172.45 3.55434V10.4467C172.45 10.6463 172.505 10.8034 172.616 10.918C172.727 11.0326 172.879 11.0899 173.071 11.0899Z" fill="black"/>
</svg>
