<svg width="30" height="30" viewBox="0 0 30 30" fill="none" xmlns="http://www.w3.org/2000/svg">
<g clip-path="url(#clip0_4594_10697)">
<path d="M12.0818 1.0001C11.1154 1.0001 10.1834 1.14204 9.28971 1.38326C9.27298 1.377 9.25813 1.36691 9.24133 1.36079L9.2286 1.39911C4.49366 2.70721 1 7.17439 1 12.5C1 17.8509 4.52683 22.3354 9.29608 23.6194H9.29735C10.1887 23.8592 11.1182 23.9999 12.0818 23.9999C15.6566 23.9999 18.824 22.2344 20.849 19.5064C21.6436 22.1051 23.9941 23.9999 26.754 23.9999H30.0083C30.1378 24.0018 30.2665 23.977 30.3867 23.9268C30.507 23.8767 30.6164 23.8022 30.7087 23.7078C30.8009 23.6134 30.8742 23.5009 30.9242 23.3769C30.9742 23.2528 31 23.1197 31 22.9852C31 22.8507 30.9742 22.7176 30.9242 22.5935C30.8742 22.4695 30.8009 22.357 30.7087 22.2626C30.6164 22.1682 30.507 22.0937 30.3867 22.0436C30.2665 21.9934 30.1378 21.9686 30.0083 21.9705H26.754C24.7401 21.9705 23.0713 20.5333 22.6327 18.5882H24.4712C24.6008 18.5901 24.7294 18.5652 24.8496 18.5151C24.9699 18.465 25.0793 18.3905 25.1716 18.2961C25.2639 18.2017 25.3371 18.0892 25.3871 17.9651C25.4372 17.8411 25.4629 17.708 25.4629 17.5735C25.4629 17.439 25.4372 17.3059 25.3871 17.1818C25.3371 17.0578 25.2639 16.9453 25.1716 16.8509C25.0793 16.7564 24.9699 16.682 24.8496 16.6319C24.7294 16.5817 24.6008 16.5569 24.4712 16.5588H22.5168V14.8676C22.5168 13.9452 21.7761 13.1765 20.8872 13.1765H20.63C20.019 13.1765 19.697 12.5839 20.0112 12.0402L22.1323 8.37119C22.3897 7.92614 22.496 7.4547 22.5334 7.02486C22.7285 4.78122 24.5328 3.0295 26.754 3.0295H30.0083C30.1378 3.0314 30.2665 3.00656 30.3867 2.95642C30.507 2.90628 30.6164 2.83184 30.7087 2.73743C30.8009 2.64301 30.8742 2.53051 30.9242 2.40646C30.9742 2.2824 31 2.14927 31 2.0148C31 1.88033 30.9742 1.74719 30.9242 1.62314C30.8742 1.49909 30.8009 1.38658 30.7087 1.29217C30.6164 1.19776 30.507 1.12332 30.3867 1.07318C30.2665 1.02304 30.1378 0.9982 30.0083 1.0001H26.754C23.9988 1.0001 21.656 2.88501 20.8579 5.47904C18.8309 2.7552 15.6543 1.0001 12.0818 1.0001ZM12.0818 3.0295C15.532 3.0295 18.5336 5.03051 20.0838 7.96954L18.3332 10.9965C17.3008 12.7827 18.572 15.1269 20.5612 15.186V15.9497C19.2292 19.4678 15.9387 21.9705 12.0818 21.9705C11.9598 21.9705 11.8411 21.957 11.7202 21.952C12.7098 20.85 13.328 19.3889 13.3779 17.7822C13.4024 17.66 13.405 17.5342 13.3856 17.411V15.1847C15.3738 15.1243 16.6445 12.7822 15.6124 10.9965L13.4912 7.32742C13.4278 7.21777 13.3787 7.05669 13.3601 6.84254C13.2328 5.37837 12.6214 4.06503 11.7062 3.04931C11.8317 3.04398 11.9551 3.0295 12.0818 3.0295ZM9.16367 3.53552C10.4014 4.21194 11.2799 5.50469 11.4121 7.02486C11.4495 7.4547 11.5558 7.92614 11.8132 8.37119L13.9356 12.0402C14.2498 12.5839 13.9265 13.1765 13.3155 13.1765H13.0596C12.1707 13.1765 11.4299 13.9452 11.4299 14.8676V16.5588H9.14839C9.01882 16.5569 8.89018 16.5817 8.76994 16.6319C8.6497 16.682 8.54026 16.7564 8.44798 16.8509C8.35571 16.9453 8.28244 17.0578 8.23242 17.1818C8.18241 17.3059 8.15666 17.439 8.15666 17.5735C8.15666 17.708 8.18241 17.8411 8.23242 17.9651C8.28244 18.0892 8.35571 18.2017 8.44798 18.2961C8.54026 18.3905 8.6497 18.465 8.76994 18.5151C8.89018 18.5652 9.01882 18.5901 9.14839 18.5882H11.3039C11.0183 19.8412 10.2278 20.8813 9.15985 21.4632C5.55813 20.195 2.95561 16.6609 2.95561 12.5C2.95561 8.33767 5.55997 4.80251 9.16367 3.53552ZM8.17058 8.44121C7.82481 8.44121 7.4932 8.58375 7.2487 8.83748C7.0042 9.0912 6.86684 9.43532 6.86684 9.79414C6.86684 10.153 7.0042 10.4971 7.2487 10.7508C7.4932 11.0045 7.82481 11.1471 8.17058 11.1471C8.51636 11.1471 8.84797 11.0045 9.09247 10.7508C9.33697 10.4971 9.47433 10.153 9.47433 9.79414C9.47433 9.43532 9.33697 9.0912 9.09247 8.83748C8.84797 8.58375 8.51636 8.44121 8.17058 8.44121ZM25.7711 8.44121C25.4253 8.44121 25.0937 8.58375 24.8492 8.83748C24.6047 9.0912 24.4674 9.43532 24.4674 9.79414C24.4674 10.153 24.6047 10.4971 24.8492 10.7508C25.0937 11.0045 25.4253 11.1471 25.7711 11.1471C26.1169 11.1471 26.4485 11.0045 26.693 10.7508C26.9375 10.4971 27.0748 10.153 27.0748 9.79414C27.0748 9.43532 26.9375 9.0912 26.693 8.83748C26.4485 8.58375 26.1169 8.44121 25.7711 8.44121Z" fill="url(#paint0_linear_4594_10697)"/>
</g>
<defs>
<linearGradient id="paint0_linear_4594_10697" x1="1.39112" y1="0.59412" x2="29.4299" y2="25.5351" gradientUnits="userSpaceOnUse">
<stop stop-color="#8F9BB3"/>
<stop offset="1" stop-color="#B7DBFF"/>
</linearGradient>
<clipPath id="clip0_4594_10697">
<rect width="30" height="30" fill="white"/>
</clipPath>
</defs>
</svg>
