<svg width="28" height="28" viewBox="0 0 28 28" fill="none" xmlns="http://www.w3.org/2000/svg">
<path d="M13.9998 1.75C7.88824 1.75 2.91649 6.72175 2.91649 12.8333V18.6667H5.83315V12.8333C5.83315 8.33 9.49649 4.66667 13.9998 4.66667C18.5032 4.66667 22.1665 8.33 22.1665 12.8333V18.6667H25.0832V12.8333C25.0832 6.72175 20.1114 1.75 13.9998 1.75ZM13.9998 6.41667C10.4619 6.41667 7.58315 9.29542 7.58315 12.8333V18.6667H10.2082V13.125C10.2082 11.0343 11.9092 9.33333 13.9998 9.33333C16.0905 9.33333 17.7915 11.0343 17.7915 13.125V18.6667H20.4165V12.8333C20.4165 9.29542 17.5377 6.41667 13.9998 6.41667ZM2.4562 20.4167L1.52195 20.9084C1.28687 21.5349 1.3746 22.237 1.75552 22.7871C2.13702 23.3378 2.76407 23.6667 3.43374 23.6667H24.5659C25.2356 23.6667 25.8626 23.3378 26.2441 22.7871C26.6256 22.2376 26.7134 21.5354 26.4777 20.9084L25.5434 20.4167H2.4562Z" fill="url(#paint0_linear_864_5876)"/>
<defs>
<linearGradient id="paint0_linear_864_5876" x1="5.225" y1="-24.25" x2="28.319" y2="-23.2472" gradientUnits="userSpaceOnUse">
<stop stop-color="#8CA5FF"/>
<stop offset="1" stop-color="#2B99FF"/>
</linearGradient>
</defs>
</svg>