<svg width="26" height="26" viewBox="0 0 26 26" fill="none" xmlns="http://www.w3.org/2000/svg">
<path d="M13 0C5.83184 0 0 5.83185 0 13C0 20.1682 5.83184 26 13 26C20.1682 26 26 20.1682 26 13C26 5.83185 20.1682 0 13 0ZM13 1.95C19.1143 1.95 24.05 6.8857 24.05 13C24.05 19.1143 19.1143 24.05 13 24.05C6.8857 24.05 1.95 19.1143 1.95 13C1.95 6.8857 6.8857 1.95 13 1.95ZM14.0067 5.2C13.4159 5.2 13.2742 5.73384 13.1104 6.35654C13.0604 6.55089 13.0331 6.6569 13.0038 6.76025C12.9317 7.017 12.8061 7.45114 12.628 8.06279C12.6144 8.11154 12.5938 8.157 12.5658 8.1999L10.5333 11.3788C10.0159 12.1887 9.23655 12.8237 8.33955 13.1676L8.00439 13.2958C7.28029 13.5727 6.86091 14.3272 7.00781 15.0884L7.29473 16.5674C7.43838 17.311 8.00808 17.9082 8.74453 18.0896L14.1502 19.4137C14.3887 19.4715 14.6271 19.5 14.8624 19.5C16.2073 19.5 17.4391 18.5892 17.7849 17.2326L18.7878 13.3009C18.9171 12.7958 18.8423 12.2716 18.577 11.8244C18.3112 11.3766 17.8868 11.0594 17.3824 10.9307C17.2251 10.8904 17.0638 10.8697 16.9013 10.8697H15.1252C15.5672 9.50473 15.7828 8.50603 15.7828 7.82158C15.7828 5.88718 14.8257 5.2 14.0067 5.2Z" fill="url(#paint0_linear_676_5102)"/>
<defs>
<linearGradient id="paint0_linear_676_5102" x1="0" y1="0" x2="26" y2="26" gradientUnits="userSpaceOnUse">
<stop stop-color="#8F9BB3"/>
<stop offset="1" stop-color="#B7DBFF"/>
</linearGradient>
</defs>
</svg>
