<svg width="16" height="16" viewBox="0 0 16 16" fill="none" xmlns="http://www.w3.org/2000/svg">
<path d="M-3.49633e-07 8.00133C-2.17951e-07 11.0139 2.45822 13.4697 5.47368 13.4697L10.4753 13.4697L9.02714 14.9164C8.96651 14.9753 8.91832 15.0456 8.8854 15.1234C8.85249 15.2011 8.83553 15.2847 8.83553 15.3691C8.83556 15.4947 8.87309 15.6174 8.94332 15.7215C9.01355 15.8257 9.11328 15.9065 9.22975 15.9537C9.34623 16.0009 9.47415 16.0123 9.59716 15.9865C9.72016 15.9607 9.83265 15.8987 9.92023 15.8087L12.3923 13.339C12.4694 13.2799 12.5319 13.2038 12.5748 13.1166C12.6177 13.0293 12.6398 12.9334 12.6395 12.8362C12.6392 12.7391 12.6164 12.6433 12.573 12.5564C12.5295 12.4694 12.4665 12.3937 12.389 12.3351L9.92023 9.86874C9.86203 9.80819 9.79233 9.75985 9.71519 9.72654C9.63806 9.69324 9.55505 9.67564 9.47103 9.67479C9.387 9.67394 9.30365 9.68984 9.22585 9.72157C9.14806 9.7533 9.07738 9.80022 9.01797 9.85958C8.95855 9.91894 8.91158 9.98955 8.87982 10.0673C8.84806 10.145 8.83214 10.2283 8.83299 10.3122C8.83385 10.3961 8.85146 10.4791 8.8848 10.5561C8.91813 10.6332 8.96652 10.7028 9.02714 10.761L10.4753 12.2077L5.47368 12.2077C3.14094 12.2077 1.26316 10.3318 1.26316 8.00133C1.26316 6.90949 1.67956 5.92463 2.36184 5.17514C2.42061 5.11439 2.46657 5.04247 2.497 4.96365C2.52743 4.88482 2.5417 4.8007 2.53898 4.71626C2.53625 4.63182 2.51658 4.54879 2.48113 4.47209C2.44568 4.39538 2.39518 4.32657 2.33261 4.26974C2.27005 4.2129 2.19669 4.16919 2.1169 4.1412C2.03711 4.11322 1.95251 4.10152 1.86811 4.10681C1.78371 4.11211 1.70123 4.13427 1.62557 4.172C1.5499 4.20973 1.48259 4.26226 1.42763 4.32646C0.545284 5.29572 -4.11456e-07 6.58698 -3.49633e-07 8.00133ZM3.35937 3.17381C3.36092 3.27002 3.38448 3.3646 3.42824 3.45033C3.472 3.53605 3.5348 3.61064 3.61184 3.66839L6.07977 6.13391C6.13797 6.19446 6.20767 6.24281 6.28481 6.27611C6.36194 6.30941 6.44495 6.32701 6.52897 6.32786C6.613 6.32872 6.69635 6.31281 6.77415 6.28108C6.85194 6.24935 6.92262 6.20243 6.98203 6.14307C7.04145 6.08371 7.08842 6.0131 7.12018 5.93539C7.15194 5.85767 7.16786 5.7744 7.16701 5.69045C7.16615 5.60651 7.14854 5.52358 7.1152 5.44652C7.08187 5.36947 7.03347 5.29983 6.97286 5.24169L5.52467 3.79491L10.5263 3.79491C12.8591 3.79491 14.7368 5.67086 14.7368 8.00133C14.7368 9.09316 14.3204 10.078 13.6382 10.8275C13.5794 10.8883 13.5334 10.9602 13.503 11.039C13.4726 11.1178 13.4583 11.202 13.461 11.2864C13.4638 11.3708 13.4834 11.4539 13.5189 11.5306C13.5543 11.6073 13.6048 11.6761 13.6674 11.7329C13.73 11.7898 13.8033 11.8335 13.8831 11.8614C13.9629 11.8894 14.0475 11.9011 14.1319 11.8958C14.2163 11.8905 14.2988 11.8684 14.3744 11.8306C14.4501 11.7929 14.5174 11.7404 14.5724 11.6762C15.4547 10.7069 16 9.41567 16 8.00133C16 4.9888 13.5418 2.53298 10.5263 2.53298L5.52467 2.53298L6.97286 1.08621C7.03347 1.02807 7.08187 0.958427 7.1152 0.881368C7.14854 0.80431 7.16615 0.721382 7.16701 0.637439C7.16786 0.553496 7.15194 0.470228 7.12018 0.392508C7.08842 0.314789 7.04145 0.244181 6.98203 0.184822C6.92262 0.125462 6.85194 0.0785443 6.77415 0.0468137C6.69635 0.015083 6.613 -0.000820449 6.52897 3.21395e-05C6.44495 0.000885682 6.36194 0.0184791 6.28481 0.0517833C6.20767 0.0850875 6.13797 0.133432 6.07977 0.193987L3.60773 2.66361C3.52934 2.72338 3.46605 2.80066 3.42292 2.88926C3.3798 2.97785 3.35803 3.0753 3.35937 3.17381Z" fill="white"/>
</svg>
