<svg width="22" height="22" viewBox="0 0 22 22" fill="none" xmlns="http://www.w3.org/2000/svg">
<path d="M14.502 0L13.9648 0.585938L12.6465 1.97754H9.83887V4.71191L8.49609 6.12793L7.95898 6.68945L9.66797 8.39844L0.561523 17.5293L0 18.0908L0.561523 18.6279L3.125 21.1914L3.66211 20.6299L12.793 11.5234L14.502 13.2324L15.0635 12.6953L16.4795 11.3525H19.2139V8.54492L20.6055 7.22656L21.1914 6.68945L19.2139 4.71191V1.97754H16.4795L14.502 0ZM14.5264 2.24609L15.6006 3.32031L15.8447 3.54004H17.6514V5.34668L17.8711 5.59082L18.9453 6.66504L17.8955 7.66602L17.6514 7.88574V9.79004H15.8447L15.625 10.0098L14.5264 11.0596L13.8916 10.4248L17.4316 6.88477L14.3311 3.78418L13.7695 4.32129L10.791 7.32422L10.1318 6.66504L11.1816 5.56641L11.4014 5.34668V3.54004H13.3057L13.5254 3.2959L14.5264 2.24609ZM14.3311 5.98145L15.21 6.88477L3.125 18.9941L2.22168 18.0908L14.3311 5.98145ZM13.0371 14.4043V15.1855H12.2559V16.748H13.0371V17.5293H14.5996V16.748H15.3809V15.1855H14.5996V14.4043H13.0371ZM17.7246 15.9668V17.5293H16.1621V19.0918H17.7246V20.6543H19.2871V19.0918H20.8496V17.5293H19.2871V15.9668H17.7246Z" fill="white"/>
</svg>
