<svg width="375" height="347" viewBox="0 0 375 347" fill="none" xmlns="http://www.w3.org/2000/svg">
<g opacity=".5">
<rect x="5" width="2" height="2" fill="#B8CCE0"/>
<rect x="17" width="2" height="2" fill="#B8CCE0"/>
<rect x="29" width="2" height="2" fill="#B8CCE0"/>
<rect x="41" width="2" height="2" fill="#B8CCE0"/>
<rect x="53" width="2" height="2" fill="#B8CCE0"/>
<rect x="65" width="2" height="2" fill="#B8CCE0"/>
<rect x="77" width="2" height="2" fill="#B8CCE0"/>
<rect x="89" width="2" height="2" fill="#B8CCE0"/>
<rect x="101" width="2" height="2" fill="#B8CCE0"/>
<rect x="113" width="2" height="2" fill="#B8CCE0"/>
<rect x="125" width="2" height="2" fill="#B8CCE0"/>
<rect x="137" width="2" height="2" fill="#B8CCE0"/>
<rect x="149" width="2" height="2" fill="#B8CCE0"/>
<rect x="161" width="2" height="2" fill="#B8CCE0"/>
<rect x="173" width="2" height="2" fill="#B8CCE0"/>
<rect x="185" width="2" height="2" fill="#B8CCE0"/>
<rect x="197" width="2" height="2" fill="#B8CCE0"/>
<rect x="209" width="2" height="2" fill="#B8CCE0"/>
<rect x="221" width="2" height="2" fill="#B8CCE0"/>
<rect x="233" width="2" height="2" fill="#B8CCE0"/>
<rect x="245" width="2" height="2" fill="#B8CCE0"/>
<rect x="257" width="2" height="2" fill="#B8CCE0"/>
<rect x="5" y="15" width="2" height="2" fill="#B8CCE0"/>
<rect x="17" y="15" width="2" height="2" fill="#B8CCE0"/>
<rect x="29" y="15" width="2" height="2" fill="#B8CCE0"/>
<rect x="41" y="15" width="2" height="2" fill="#B8CCE0"/>
<rect x="53" y="15" width="2" height="2" fill="#B8CCE0"/>
<rect x="65" y="15" width="2" height="2" fill="#B8CCE0"/>
<rect x="77" y="15" width="2" height="2" fill="#B8CCE0"/>
<rect x="89" y="15" width="2" height="2" fill="#B8CCE0"/>
<rect x="101" y="15" width="2" height="2" fill="#B8CCE0"/>
<rect x="113" y="15" width="2" height="2" fill="#B8CCE0"/>
<rect x="125" y="15" width="2" height="2" fill="#B8CCE0"/>
<rect x="137" y="15" width="2" height="2" fill="#B8CCE0"/>
<rect x="149" y="15" width="2" height="2" fill="#B8CCE0"/>
<rect x="161" y="15" width="2" height="2" fill="#B8CCE0"/>
<rect x="173" y="15" width="2" height="2" fill="#B8CCE0"/>
<rect x="185" y="15" width="2" height="2" fill="#B8CCE0"/>
<rect x="197" y="15" width="2" height="2" fill="#B8CCE0"/>
<rect x="209" y="15" width="2" height="2" fill="#B8CCE0"/>
<rect x="221" y="15" width="2" height="2" fill="#B8CCE0"/>
<rect x="233" y="15" width="2" height="2" fill="#B8CCE0"/>
<rect x="245" y="15" width="2" height="2" fill="#B8CCE0"/>
<rect x="257" y="15" width="2" height="2" fill="#B8CCE0"/>
<rect x="5" y="30" width="2" height="2" fill="#B8CCE0"/>
<rect x="17" y="30" width="2" height="2" fill="#B8CCE0"/>
<rect x="29" y="30" width="2" height="2" fill="#B8CCE0"/>
<rect x="41" y="30" width="2" height="2" fill="#B8CCE0"/>
<rect x="53" y="30" width="2" height="2" fill="#B8CCE0"/>
<rect x="65" y="30" width="2" height="2" fill="#B8CCE0"/>
<rect x="77" y="30" width="2" height="2" fill="#B8CCE0"/>
<rect x="89" y="30" width="2" height="2" fill="#B8CCE0"/>
<rect x="101" y="30" width="2" height="2" fill="#B8CCE0"/>
<rect x="113" y="30" width="2" height="2" fill="#B8CCE0"/>
<rect x="125" y="30" width="2" height="2" fill="#B8CCE0"/>
<rect x="137" y="30" width="2" height="2" fill="#B8CCE0"/>
<rect x="149" y="30" width="2" height="2" fill="#B8CCE0"/>
<rect x="161" y="30" width="2" height="2" fill="#B8CCE0"/>
<rect x="173" y="30" width="2" height="2" fill="#B8CCE0"/>
<rect x="185" y="30" width="2" height="2" fill="#B8CCE0"/>
<rect x="197" y="30" width="2" height="2" fill="#B8CCE0"/>
<rect x="209" y="30" width="2" height="2" fill="#B8CCE0"/>
<rect x="221" y="30" width="2" height="2" fill="#B8CCE0"/>
<rect x="233" y="30" width="2" height="2" fill="#B8CCE0"/>
<rect x="245" y="30" width="2" height="2" fill="#B8CCE0"/>
<rect x="257" y="30" width="2" height="2" fill="#B8CCE0"/>
<rect x="5" y="45" width="2" height="2" fill="#B8CCE0"/>
<rect x="17" y="45" width="2" height="2" fill="#B8CCE0"/>
<rect x="29" y="45" width="2" height="2" fill="#B8CCE0"/>
<rect x="41" y="45" width="2" height="2" fill="#B8CCE0"/>
<rect x="53" y="45" width="2" height="2" fill="#B8CCE0"/>
<rect x="65" y="45" width="2" height="2" fill="#B8CCE0"/>
<rect x="77" y="45" width="2" height="2" fill="#B8CCE0"/>
<rect x="89" y="45" width="2" height="2" fill="#B8CCE0"/>
<rect x="101" y="45" width="2" height="2" fill="#B8CCE0"/>
<rect x="113" y="45" width="2" height="2" fill="#B8CCE0"/>
<rect x="125" y="45" width="2" height="2" fill="#B8CCE0"/>
<rect x="137" y="45" width="2" height="2" fill="#B8CCE0"/>
<rect x="149" y="45" width="2" height="2" fill="#B8CCE0"/>
<rect x="161" y="45" width="2" height="2" fill="#B8CCE0"/>
<rect x="173" y="45" width="2" height="2" fill="#B8CCE0"/>
<rect x="185" y="45" width="2" height="2" fill="#B8CCE0"/>
<rect x="197" y="45" width="2" height="2" fill="#B8CCE0"/>
<rect x="209" y="45" width="2" height="2" fill="#B8CCE0"/>
<rect x="221" y="45" width="2" height="2" fill="#B8CCE0"/>
<rect x="233" y="45" width="2" height="2" fill="#B8CCE0"/>
<rect x="245" y="45" width="2" height="2" fill="#B8CCE0"/>
<rect x="257" y="45" width="2" height="2" fill="#B8CCE0"/>
<rect x="5" y="60" width="2" height="2" fill="#B8CCE0"/>
<rect x="17" y="60" width="2" height="2" fill="#B8CCE0"/>
<rect x="29" y="60" width="2" height="2" fill="#B8CCE0"/>
<rect x="41" y="60" width="2" height="2" fill="#B8CCE0"/>
<rect x="53" y="60" width="2" height="2" fill="#B8CCE0"/>
<rect x="65" y="60" width="2" height="2" fill="#B8CCE0"/>
<rect x="77" y="60" width="2" height="2" fill="#B8CCE0"/>
<rect x="89" y="60" width="2" height="2" fill="#B8CCE0"/>
<rect x="101" y="60" width="2" height="2" fill="#B8CCE0"/>
<rect x="113" y="60" width="2" height="2" fill="#B8CCE0"/>
<rect x="125" y="60" width="2" height="2" fill="#B8CCE0"/>
<rect x="137" y="60" width="2" height="2" fill="#B8CCE0"/>
<rect x="149" y="60" width="2" height="2" fill="#B8CCE0"/>
<rect x="161" y="60" width="2" height="2" fill="#B8CCE0"/>
<rect x="173" y="60" width="2" height="2" fill="#B8CCE0"/>
<rect x="185" y="60" width="2" height="2" fill="#B8CCE0"/>
<rect x="197" y="60" width="2" height="2" fill="#B8CCE0"/>
<rect x="209" y="60" width="2" height="2" fill="#B8CCE0"/>
<rect x="221" y="60" width="2" height="2" fill="#B8CCE0"/>
<rect x="233" y="60" width="2" height="2" fill="#B8CCE0"/>
<rect x="245" y="60" width="2" height="2" fill="#B8CCE0"/>
<rect x="257" y="60" width="2" height="2" fill="#B8CCE0"/>
<rect x="5" y="75" width="2" height="2" fill="#B8CCE0"/>
<rect x="17" y="75" width="2" height="2" fill="#B8CCE0"/>
<rect x="29" y="75" width="2" height="2" fill="#B8CCE0"/>
<rect x="41" y="75" width="2" height="2" fill="#B8CCE0"/>
<rect x="53" y="75" width="2" height="2" fill="#B8CCE0"/>
<rect x="65" y="75" width="2" height="2" fill="#B8CCE0"/>
<rect x="77" y="75" width="2" height="2" fill="#B8CCE0"/>
<rect x="89" y="75" width="2" height="2" fill="#B8CCE0"/>
<rect x="101" y="75" width="2" height="2" fill="#B8CCE0"/>
<rect x="113" y="75" width="2" height="2" fill="#B8CCE0"/>
<rect x="125" y="75" width="2" height="2" fill="#B8CCE0"/>
<rect x="137" y="75" width="2" height="2" fill="#B8CCE0"/>
<rect x="149" y="75" width="2" height="2" fill="#B8CCE0"/>
<rect x="161" y="75" width="2" height="2" fill="#B8CCE0"/>
<rect x="173" y="75" width="2" height="2" fill="#B8CCE0"/>
<rect x="185" y="75" width="2" height="2" fill="#B8CCE0"/>
<rect x="197" y="75" width="2" height="2" fill="#B8CCE0"/>
<rect x="209" y="75" width="2" height="2" fill="#B8CCE0"/>
<rect x="221" y="75" width="2" height="2" fill="#B8CCE0"/>
<rect x="233" y="75" width="2" height="2" fill="#B8CCE0"/>
<rect x="245" y="75" width="2" height="2" fill="#B8CCE0"/>
<rect x="257" y="75" width="2" height="2" fill="#B8CCE0"/>
<rect x="5" y="90" width="2" height="2" fill="#B8CCE0"/>
<rect x="17" y="90" width="2" height="2" fill="#B8CCE0"/>
<rect x="29" y="90" width="2" height="2" fill="#B8CCE0"/>
<rect x="41" y="90" width="2" height="2" fill="#B8CCE0"/>
<rect x="53" y="90" width="2" height="2" fill="#B8CCE0"/>
<rect x="65" y="90" width="2" height="2" fill="#B8CCE0"/>
<rect x="77" y="90" width="2" height="2" fill="#B8CCE0"/>
<rect x="89" y="90" width="2" height="2" fill="#B8CCE0"/>
<rect x="101" y="90" width="2" height="2" fill="#B8CCE0"/>
<rect x="113" y="90" width="2" height="2" fill="#B8CCE0"/>
<rect x="125" y="90" width="2" height="2" fill="#B8CCE0"/>
<rect x="137" y="90" width="2" height="2" fill="#B8CCE0"/>
<rect x="149" y="90" width="2" height="2" fill="#B8CCE0"/>
<rect x="161" y="90" width="2" height="2" fill="#B8CCE0"/>
<rect x="173" y="90" width="2" height="2" fill="#B8CCE0"/>
<rect x="185" y="90" width="2" height="2" fill="#B8CCE0"/>
<rect x="197" y="90" width="2" height="2" fill="#B8CCE0"/>
<rect x="209" y="90" width="2" height="2" fill="#B8CCE0"/>
<rect x="221" y="90" width="2" height="2" fill="#B8CCE0"/>
<rect x="233" y="90" width="2" height="2" fill="#B8CCE0"/>
<rect x="245" y="90" width="2" height="2" fill="#B8CCE0"/>
<rect x="257" y="90" width="2" height="2" fill="#B8CCE0"/>
<rect x="5" y="105" width="2" height="2" fill="#B8CCE0"/>
<rect x="17" y="105" width="2" height="2" fill="#B8CCE0"/>
<rect x="29" y="105" width="2" height="2" fill="#B8CCE0"/>
<rect x="41" y="105" width="2" height="2" fill="#B8CCE0"/>
<rect x="53" y="105" width="2" height="2" fill="#B8CCE0"/>
<rect x="65" y="105" width="2" height="2" fill="#B8CCE0"/>
<rect x="77" y="105" width="2" height="2" fill="#B8CCE0"/>
<rect x="89" y="105" width="2" height="2" fill="#B8CCE0"/>
<rect x="101" y="105" width="2" height="2" fill="#B8CCE0"/>
<rect x="113" y="105" width="2" height="2" fill="#B8CCE0"/>
<rect x="125" y="105" width="2" height="2" fill="#B8CCE0"/>
<rect x="137" y="105" width="2" height="2" fill="#B8CCE0"/>
<rect x="149" y="105" width="2" height="2" fill="#B8CCE0"/>
<rect x="161" y="105" width="2" height="2" fill="#B8CCE0"/>
<rect x="173" y="105" width="2" height="2" fill="#B8CCE0"/>
<rect x="185" y="105" width="2" height="2" fill="#B8CCE0"/>
<rect x="197" y="105" width="2" height="2" fill="#B8CCE0"/>
<rect x="209" y="105" width="2" height="2" fill="#B8CCE0"/>
<rect x="221" y="105" width="2" height="2" fill="#B8CCE0"/>
<rect x="233" y="105" width="2" height="2" fill="#B8CCE0"/>
<rect x="245" y="105" width="2" height="2" fill="#B8CCE0"/>
<rect x="257" y="105" width="2" height="2" fill="#B8CCE0"/>
<rect x="5" y="120" width="2" height="2" fill="#B8CCE0"/>
<rect x="17" y="120" width="2" height="2" fill="#B8CCE0"/>
<rect x="29" y="120" width="2" height="2" fill="#B8CCE0"/>
<rect x="41" y="120" width="2" height="2" fill="#B8CCE0"/>
<rect x="53" y="120" width="2" height="2" fill="#B8CCE0"/>
<rect x="65" y="120" width="2" height="2" fill="#B8CCE0"/>
<rect x="77" y="120" width="2" height="2" fill="#B8CCE0"/>
<rect x="89" y="120" width="2" height="2" fill="#B8CCE0"/>
<rect x="101" y="120" width="2" height="2" fill="#B8CCE0"/>
<rect x="113" y="120" width="2" height="2" fill="#B8CCE0"/>
<rect x="125" y="120" width="2" height="2" fill="#B8CCE0"/>
<rect x="137" y="120" width="2" height="2" fill="#B8CCE0"/>
<rect x="149" y="120" width="2" height="2" fill="#B8CCE0"/>
<rect x="161" y="120" width="2" height="2" fill="#B8CCE0"/>
<rect x="173" y="120" width="2" height="2" fill="#B8CCE0"/>
<rect x="185" y="120" width="2" height="2" fill="#B8CCE0"/>
<rect x="197" y="120" width="2" height="2" fill="#B8CCE0"/>
<rect x="209" y="120" width="2" height="2" fill="#B8CCE0"/>
<rect x="221" y="120" width="2" height="2" fill="#B8CCE0"/>
<rect x="233" y="120" width="2" height="2" fill="#B8CCE0"/>
<rect x="245" y="120" width="2" height="2" fill="#B8CCE0"/>
<rect x="257" y="120" width="2" height="2" fill="#B8CCE0"/>
<rect x="5" y="135" width="2" height="2" fill="#B8CCE0"/>
<rect x="17" y="135" width="2" height="2" fill="#B8CCE0"/>
<rect x="29" y="135" width="2" height="2" fill="#B8CCE0"/>
<rect x="41" y="135" width="2" height="2" fill="#B8CCE0"/>
<rect x="53" y="135" width="2" height="2" fill="#B8CCE0"/>
<rect x="65" y="135" width="2" height="2" fill="#B8CCE0"/>
<rect x="77" y="135" width="2" height="2" fill="#B8CCE0"/>
<rect x="89" y="135" width="2" height="2" fill="#B8CCE0"/>
<rect x="101" y="135" width="2" height="2" fill="#B8CCE0"/>
<rect x="113" y="135" width="2" height="2" fill="#B8CCE0"/>
<rect x="125" y="135" width="2" height="2" fill="#B8CCE0"/>
<rect x="137" y="135" width="2" height="2" fill="#B8CCE0"/>
<rect x="149" y="135" width="2" height="2" fill="#B8CCE0"/>
<rect x="161" y="135" width="2" height="2" fill="#B8CCE0"/>
<rect x="173" y="135" width="2" height="2" fill="#B8CCE0"/>
<rect x="185" y="135" width="2" height="2" fill="#B8CCE0"/>
<rect x="197" y="135" width="2" height="2" fill="#B8CCE0"/>
<rect x="209" y="135" width="2" height="2" fill="#B8CCE0"/>
<rect x="221" y="135" width="2" height="2" fill="#B8CCE0"/>
<rect x="233" y="135" width="2" height="2" fill="#B8CCE0"/>
<rect x="245" y="135" width="2" height="2" fill="#B8CCE0"/>
<rect x="257" y="135" width="2" height="2" fill="#B8CCE0"/>
<rect x="5" y="150" width="2" height="2" fill="#B8CCE0"/>
<rect x="17" y="150" width="2" height="2" fill="#B8CCE0"/>
<rect x="29" y="150" width="2" height="2" fill="#B8CCE0"/>
<rect x="41" y="150" width="2" height="2" fill="#B8CCE0"/>
<rect x="53" y="150" width="2" height="2" fill="#B8CCE0"/>
<rect x="65" y="150" width="2" height="2" fill="#B8CCE0"/>
<rect x="77" y="150" width="2" height="2" fill="#B8CCE0"/>
<rect x="89" y="150" width="2" height="2" fill="#B8CCE0"/>
<rect x="101" y="150" width="2" height="2" fill="#B8CCE0"/>
<rect x="113" y="150" width="2" height="2" fill="#B8CCE0"/>
<rect x="125" y="150" width="2" height="2" fill="#B8CCE0"/>
<rect x="137" y="150" width="2" height="2" fill="#B8CCE0"/>
<rect x="149" y="150" width="2" height="2" fill="#B8CCE0"/>
<rect x="161" y="150" width="2" height="2" fill="#B8CCE0"/>
<rect x="173" y="150" width="2" height="2" fill="#B8CCE0"/>
<rect x="185" y="150" width="2" height="2" fill="#B8CCE0"/>
<rect x="197" y="150" width="2" height="2" fill="#B8CCE0"/>
<rect x="209" y="150" width="2" height="2" fill="#B8CCE0"/>
<rect x="221" y="150" width="2" height="2" fill="#B8CCE0"/>
<rect x="233" y="150" width="2" height="2" fill="#B8CCE0"/>
<rect x="245" y="150" width="2" height="2" fill="#B8CCE0"/>
<rect x="257" y="150" width="2" height="2" fill="#B8CCE0"/>
<rect x="5" y="165" width="2" height="2" fill="#B8CCE0"/>
<rect x="17" y="165" width="2" height="2" fill="#B8CCE0"/>
<rect x="29" y="165" width="2" height="2" fill="#B8CCE0"/>
<rect x="41" y="165" width="2" height="2" fill="#B8CCE0"/>
<rect x="53" y="165" width="2" height="2" fill="#B8CCE0"/>
<rect x="65" y="165" width="2" height="2" fill="#B8CCE0"/>
<rect x="77" y="165" width="2" height="2" fill="#B8CCE0"/>
<rect x="89" y="165" width="2" height="2" fill="#B8CCE0"/>
<rect x="101" y="165" width="2" height="2" fill="#B8CCE0"/>
<rect x="113" y="165" width="2" height="2" fill="#B8CCE0"/>
<rect x="125" y="165" width="2" height="2" fill="#B8CCE0"/>
<rect x="137" y="165" width="2" height="2" fill="#B8CCE0"/>
<rect x="149" y="165" width="2" height="2" fill="#B8CCE0"/>
<rect x="161" y="165" width="2" height="2" fill="#B8CCE0"/>
<rect x="173" y="165" width="2" height="2" fill="#B8CCE0"/>
<rect x="185" y="165" width="2" height="2" fill="#B8CCE0"/>
<rect x="197" y="165" width="2" height="2" fill="#B8CCE0"/>
<rect x="209" y="165" width="2" height="2" fill="#B8CCE0"/>
<rect x="221" y="165" width="2" height="2" fill="#B8CCE0"/>
<rect x="233" y="165" width="2" height="2" fill="#B8CCE0"/>
<rect x="245" y="165" width="2" height="2" fill="#B8CCE0"/>
<rect x="257" y="165" width="2" height="2" fill="#B8CCE0"/>
<rect x="5" y="180" width="2" height="2" fill="#B8CCE0"/>
<rect x="17" y="180" width="2" height="2" fill="#B8CCE0"/>
<rect x="29" y="180" width="2" height="2" fill="#B8CCE0"/>
<rect x="41" y="180" width="2" height="2" fill="#B8CCE0"/>
<rect x="53" y="180" width="2" height="2" fill="#B8CCE0"/>
<rect x="65" y="180" width="2" height="2" fill="#B8CCE0"/>
<rect x="77" y="180" width="2" height="2" fill="#B8CCE0"/>
<rect x="89" y="180" width="2" height="2" fill="#B8CCE0"/>
<rect x="101" y="180" width="2" height="2" fill="#B8CCE0"/>
<rect x="113" y="180" width="2" height="2" fill="#B8CCE0"/>
<rect x="125" y="180" width="2" height="2" fill="#B8CCE0"/>
<rect x="137" y="180" width="2" height="2" fill="#B8CCE0"/>
<rect x="149" y="180" width="2" height="2" fill="#B8CCE0"/>
<rect x="161" y="180" width="2" height="2" fill="#B8CCE0"/>
<rect x="173" y="180" width="2" height="2" fill="#B8CCE0"/>
<rect x="185" y="180" width="2" height="2" fill="#B8CCE0"/>
<rect x="197" y="180" width="2" height="2" fill="#B8CCE0"/>
<rect x="209" y="180" width="2" height="2" fill="#B8CCE0"/>
<rect x="221" y="180" width="2" height="2" fill="#B8CCE0"/>
<rect x="233" y="180" width="2" height="2" fill="#B8CCE0"/>
<rect x="245" y="180" width="2" height="2" fill="#B8CCE0"/>
<rect x="257" y="180" width="2" height="2" fill="#B8CCE0"/>
<rect x="5" y="195" width="2" height="2" fill="#B8CCE0"/>
<rect x="17" y="195" width="2" height="2" fill="#B8CCE0"/>
<rect x="29" y="195" width="2" height="2" fill="#B8CCE0"/>
<rect x="41" y="195" width="2" height="2" fill="#B8CCE0"/>
<rect x="53" y="195" width="2" height="2" fill="#B8CCE0"/>
<rect x="65" y="195" width="2" height="2" fill="#B8CCE0"/>
<rect x="77" y="195" width="2" height="2" fill="#B8CCE0"/>
<rect x="89" y="195" width="2" height="2" fill="#B8CCE0"/>
<rect x="101" y="195" width="2" height="2" fill="#B8CCE0"/>
<rect x="113" y="195" width="2" height="2" fill="#B8CCE0"/>
<rect x="125" y="195" width="2" height="2" fill="#B8CCE0"/>
<rect x="137" y="195" width="2" height="2" fill="#B8CCE0"/>
<rect x="149" y="195" width="2" height="2" fill="#B8CCE0"/>
<rect x="161" y="195" width="2" height="2" fill="#B8CCE0"/>
<rect x="173" y="195" width="2" height="2" fill="#B8CCE0"/>
<rect x="185" y="195" width="2" height="2" fill="#B8CCE0"/>
<rect x="197" y="195" width="2" height="2" fill="#B8CCE0"/>
<rect x="209" y="195" width="2" height="2" fill="#B8CCE0"/>
<rect x="221" y="195" width="2" height="2" fill="#B8CCE0"/>
<rect x="233" y="195" width="2" height="2" fill="#B8CCE0"/>
<rect x="245" y="195" width="2" height="2" fill="#B8CCE0"/>
<rect x="257" y="195" width="2" height="2" fill="#B8CCE0"/>
<rect x="5" y="210" width="2" height="2" fill="#B8CCE0"/>
<rect x="17" y="210" width="2" height="2" fill="#B8CCE0"/>
<rect x="29" y="210" width="2" height="2" fill="#B8CCE0"/>
<rect x="41" y="210" width="2" height="2" fill="#B8CCE0"/>
<rect x="53" y="210" width="2" height="2" fill="#B8CCE0"/>
<rect x="65" y="210" width="2" height="2" fill="#B8CCE0"/>
<rect x="77" y="210" width="2" height="2" fill="#B8CCE0"/>
<rect x="89" y="210" width="2" height="2" fill="#B8CCE0"/>
<rect x="101" y="210" width="2" height="2" fill="#B8CCE0"/>
<rect x="113" y="210" width="2" height="2" fill="#B8CCE0"/>
<rect x="125" y="210" width="2" height="2" fill="#B8CCE0"/>
<rect x="137" y="210" width="2" height="2" fill="#B8CCE0"/>
<rect x="149" y="210" width="2" height="2" fill="#B8CCE0"/>
<rect x="161" y="210" width="2" height="2" fill="#B8CCE0"/>
<rect x="173" y="210" width="2" height="2" fill="#B8CCE0"/>
<rect x="185" y="210" width="2" height="2" fill="#B8CCE0"/>
<rect x="197" y="210" width="2" height="2" fill="#B8CCE0"/>
<rect x="209" y="210" width="2" height="2" fill="#B8CCE0"/>
<rect x="221" y="210" width="2" height="2" fill="#B8CCE0"/>
<rect x="233" y="210" width="2" height="2" fill="#B8CCE0"/>
<rect x="245" y="210" width="2" height="2" fill="#B8CCE0"/>
<rect x="257" y="210" width="2" height="2" fill="#B8CCE0"/>
<rect x="5" y="225" width="2" height="2" fill="#B8CCE0"/>
<rect x="17" y="225" width="2" height="2" fill="#B8CCE0"/>
<rect x="29" y="225" width="2" height="2" fill="#B8CCE0"/>
<rect x="41" y="225" width="2" height="2" fill="#B8CCE0"/>
<rect x="53" y="225" width="2" height="2" fill="#B8CCE0"/>
<rect x="65" y="225" width="2" height="2" fill="#B8CCE0"/>
<rect x="77" y="225" width="2" height="2" fill="#B8CCE0"/>
<rect x="89" y="225" width="2" height="2" fill="#B8CCE0"/>
<rect x="101" y="225" width="2" height="2" fill="#B8CCE0"/>
<rect x="113" y="225" width="2" height="2" fill="#B8CCE0"/>
<rect x="125" y="225" width="2" height="2" fill="#B8CCE0"/>
<rect x="137" y="225" width="2" height="2" fill="#B8CCE0"/>
<rect x="149" y="225" width="2" height="2" fill="#B8CCE0"/>
<rect x="161" y="225" width="2" height="2" fill="#B8CCE0"/>
<rect x="173" y="225" width="2" height="2" fill="#B8CCE0"/>
<rect x="185" y="225" width="2" height="2" fill="#B8CCE0"/>
<rect x="197" y="225" width="2" height="2" fill="#B8CCE0"/>
<rect x="209" y="225" width="2" height="2" fill="#B8CCE0"/>
<rect x="221" y="225" width="2" height="2" fill="#B8CCE0"/>
<rect x="233" y="225" width="2" height="2" fill="#B8CCE0"/>
<rect x="245" y="225" width="2" height="2" fill="#B8CCE0"/>
<rect x="257" y="225" width="2" height="2" fill="#B8CCE0"/>
<rect x="5" y="240" width="2" height="2" fill="#B8CCE0"/>
<rect x="17" y="240" width="2" height="2" fill="#B8CCE0"/>
<rect x="29" y="240" width="2" height="2" fill="#B8CCE0"/>
<rect x="41" y="240" width="2" height="2" fill="#B8CCE0"/>
<rect x="53" y="240" width="2" height="2" fill="#B8CCE0"/>
<rect x="65" y="240" width="2" height="2" fill="#B8CCE0"/>
<rect x="77" y="240" width="2" height="2" fill="#B8CCE0"/>
<rect x="89" y="240" width="2" height="2" fill="#B8CCE0"/>
<rect x="101" y="240" width="2" height="2" fill="#B8CCE0"/>
<rect x="113" y="240" width="2" height="2" fill="#B8CCE0"/>
<rect x="125" y="240" width="2" height="2" fill="#B8CCE0"/>
<rect x="137" y="240" width="2" height="2" fill="#B8CCE0"/>
<rect x="149" y="240" width="2" height="2" fill="#B8CCE0"/>
<rect x="161" y="240" width="2" height="2" fill="#B8CCE0"/>
<rect x="173" y="240" width="2" height="2" fill="#B8CCE0"/>
<rect x="185" y="240" width="2" height="2" fill="#B8CCE0"/>
<rect x="197" y="240" width="2" height="2" fill="#B8CCE0"/>
<rect x="209" y="240" width="2" height="2" fill="#B8CCE0"/>
<rect x="221" y="240" width="2" height="2" fill="#B8CCE0"/>
<rect x="233" y="240" width="2" height="2" fill="#B8CCE0"/>
<rect x="245" y="240" width="2" height="2" fill="#B8CCE0"/>
<rect x="257" y="240" width="2" height="2" fill="#B8CCE0"/>
<rect x="5" y="255" width="2" height="2" fill="#B8CCE0"/>
<rect x="17" y="255" width="2" height="2" fill="#B8CCE0"/>
<rect x="29" y="255" width="2" height="2" fill="#B8CCE0"/>
<rect x="41" y="255" width="2" height="2" fill="#B8CCE0"/>
<rect x="53" y="255" width="2" height="2" fill="#B8CCE0"/>
<rect x="65" y="255" width="2" height="2" fill="#B8CCE0"/>
<rect x="77" y="255" width="2" height="2" fill="#B8CCE0"/>
<rect x="89" y="255" width="2" height="2" fill="#B8CCE0"/>
<rect x="101" y="255" width="2" height="2" fill="#B8CCE0"/>
<rect x="113" y="255" width="2" height="2" fill="#B8CCE0"/>
<rect x="125" y="255" width="2" height="2" fill="#B8CCE0"/>
<rect x="137" y="255" width="2" height="2" fill="#B8CCE0"/>
<rect x="149" y="255" width="2" height="2" fill="#B8CCE0"/>
<rect x="161" y="255" width="2" height="2" fill="#B8CCE0"/>
<rect x="173" y="255" width="2" height="2" fill="#B8CCE0"/>
<rect x="185" y="255" width="2" height="2" fill="#B8CCE0"/>
<rect x="197" y="255" width="2" height="2" fill="#B8CCE0"/>
<rect x="209" y="255" width="2" height="2" fill="#B8CCE0"/>
<rect x="221" y="255" width="2" height="2" fill="#B8CCE0"/>
<rect x="233" y="255" width="2" height="2" fill="#B8CCE0"/>
<rect x="245" y="255" width="2" height="2" fill="#B8CCE0"/>
<rect x="257" y="255" width="2" height="2" fill="#B8CCE0"/>
<rect x="5" y="270" width="2" height="2" fill="#B8CCE0"/>
<rect x="17" y="270" width="2" height="2" fill="#B8CCE0"/>
<rect x="29" y="270" width="2" height="2" fill="#B8CCE0"/>
<rect x="41" y="270" width="2" height="2" fill="#B8CCE0"/>
<rect x="53" y="270" width="2" height="2" fill="#B8CCE0"/>
<rect x="65" y="270" width="2" height="2" fill="#B8CCE0"/>
<rect x="77" y="270" width="2" height="2" fill="#B8CCE0"/>
<rect x="89" y="270" width="2" height="2" fill="#B8CCE0"/>
<rect x="101" y="270" width="2" height="2" fill="#B8CCE0"/>
<rect x="113" y="270" width="2" height="2" fill="#B8CCE0"/>
<rect x="125" y="270" width="2" height="2" fill="#B8CCE0"/>
<rect x="137" y="270" width="2" height="2" fill="#B8CCE0"/>
<rect x="149" y="270" width="2" height="2" fill="#B8CCE0"/>
<rect x="161" y="270" width="2" height="2" fill="#B8CCE0"/>
<rect x="173" y="270" width="2" height="2" fill="#B8CCE0"/>
<rect x="185" y="270" width="2" height="2" fill="#B8CCE0"/>
<rect x="197" y="270" width="2" height="2" fill="#B8CCE0"/>
<rect x="209" y="270" width="2" height="2" fill="#B8CCE0"/>
<rect x="221" y="270" width="2" height="2" fill="#B8CCE0"/>
<rect x="233" y="270" width="2" height="2" fill="#B8CCE0"/>
<rect x="245" y="270" width="2" height="2" fill="#B8CCE0"/>
<rect x="257" y="270" width="2" height="2" fill="#B8CCE0"/>
<rect x="5" y="285" width="2" height="2" fill="#B8CCE0"/>
<rect x="17" y="285" width="2" height="2" fill="#B8CCE0"/>
<rect x="29" y="285" width="2" height="2" fill="#B8CCE0"/>
<rect x="41" y="285" width="2" height="2" fill="#B8CCE0"/>
<rect x="53" y="285" width="2" height="2" fill="#B8CCE0"/>
<rect x="65" y="285" width="2" height="2" fill="#B8CCE0"/>
<rect x="77" y="285" width="2" height="2" fill="#B8CCE0"/>
<rect x="89" y="285" width="2" height="2" fill="#B8CCE0"/>
<rect x="101" y="285" width="2" height="2" fill="#B8CCE0"/>
<rect x="113" y="285" width="2" height="2" fill="#B8CCE0"/>
<rect x="125" y="285" width="2" height="2" fill="#B8CCE0"/>
<rect x="137" y="285" width="2" height="2" fill="#B8CCE0"/>
<rect x="149" y="285" width="2" height="2" fill="#B8CCE0"/>
<rect x="161" y="285" width="2" height="2" fill="#B8CCE0"/>
<rect x="173" y="285" width="2" height="2" fill="#B8CCE0"/>
<rect x="185" y="285" width="2" height="2" fill="#B8CCE0"/>
<rect x="197" y="285" width="2" height="2" fill="#B8CCE0"/>
<rect x="209" y="285" width="2" height="2" fill="#B8CCE0"/>
<rect x="221" y="285" width="2" height="2" fill="#B8CCE0"/>
<rect x="233" y="285" width="2" height="2" fill="#B8CCE0"/>
<rect x="245" y="285" width="2" height="2" fill="#B8CCE0"/>
<rect x="257" y="285" width="2" height="2" fill="#B8CCE0"/>
<rect x="5" y="300" width="2" height="2" fill="#B8CCE0"/>
<rect x="17" y="300" width="2" height="2" fill="#B8CCE0"/>
<rect x="29" y="300" width="2" height="2" fill="#B8CCE0"/>
<rect x="41" y="300" width="2" height="2" fill="#B8CCE0"/>
<rect x="53" y="300" width="2" height="2" fill="#B8CCE0"/>
<rect x="65" y="300" width="2" height="2" fill="#B8CCE0"/>
<rect x="77" y="300" width="2" height="2" fill="#B8CCE0"/>
<rect x="89" y="300" width="2" height="2" fill="#B8CCE0"/>
<rect x="101" y="300" width="2" height="2" fill="#B8CCE0"/>
<rect x="113" y="300" width="2" height="2" fill="#B8CCE0"/>
<rect x="125" y="300" width="2" height="2" fill="#B8CCE0"/>
<rect x="137" y="300" width="2" height="2" fill="#B8CCE0"/>
<rect x="149" y="300" width="2" height="2" fill="#B8CCE0"/>
<rect x="161" y="300" width="2" height="2" fill="#B8CCE0"/>
<rect x="173" y="300" width="2" height="2" fill="#B8CCE0"/>
<rect x="185" y="300" width="2" height="2" fill="#B8CCE0"/>
<rect x="197" y="300" width="2" height="2" fill="#B8CCE0"/>
<rect x="209" y="300" width="2" height="2" fill="#B8CCE0"/>
<rect x="221" y="300" width="2" height="2" fill="#B8CCE0"/>
<rect x="233" y="300" width="2" height="2" fill="#B8CCE0"/>
<rect x="245" y="300" width="2" height="2" fill="#B8CCE0"/>
<rect x="257" y="300" width="2" height="2" fill="#B8CCE0"/>
<rect x="5" y="315" width="2" height="2" fill="#B8CCE0"/>
<rect x="17" y="315" width="2" height="2" fill="#B8CCE0"/>
<rect x="29" y="315" width="2" height="2" fill="#B8CCE0"/>
<rect x="41" y="315" width="2" height="2" fill="#B8CCE0"/>
<rect x="53" y="315" width="2" height="2" fill="#B8CCE0"/>
<rect x="65" y="315" width="2" height="2" fill="#B8CCE0"/>
<rect x="77" y="315" width="2" height="2" fill="#B8CCE0"/>
<rect x="89" y="315" width="2" height="2" fill="#B8CCE0"/>
<rect x="101" y="315" width="2" height="2" fill="#B8CCE0"/>
<rect x="113" y="315" width="2" height="2" fill="#B8CCE0"/>
<rect x="125" y="315" width="2" height="2" fill="#B8CCE0"/>
<rect x="137" y="315" width="2" height="2" fill="#B8CCE0"/>
<rect x="149" y="315" width="2" height="2" fill="#B8CCE0"/>
<rect x="161" y="315" width="2" height="2" fill="#B8CCE0"/>
<rect x="173" y="315" width="2" height="2" fill="#B8CCE0"/>
<rect x="185" y="315" width="2" height="2" fill="#B8CCE0"/>
<rect x="197" y="315" width="2" height="2" fill="#B8CCE0"/>
<rect x="209" y="315" width="2" height="2" fill="#B8CCE0"/>
<rect x="221" y="315" width="2" height="2" fill="#B8CCE0"/>
<rect x="233" y="315" width="2" height="2" fill="#B8CCE0"/>
<rect x="245" y="315" width="2" height="2" fill="#B8CCE0"/>
<rect x="257" y="315" width="2" height="2" fill="#B8CCE0"/>
<rect x="5" y="330" width="2" height="2" fill="#B8CCE0"/>
<rect x="17" y="330" width="2" height="2" fill="#B8CCE0"/>
<rect x="29" y="330" width="2" height="2" fill="#B8CCE0"/>
<rect x="41" y="330" width="2" height="2" fill="#B8CCE0"/>
<rect x="53" y="330" width="2" height="2" fill="#B8CCE0"/>
<rect x="65" y="330" width="2" height="2" fill="#B8CCE0"/>
<rect x="77" y="330" width="2" height="2" fill="#B8CCE0"/>
<rect x="89" y="330" width="2" height="2" fill="#B8CCE0"/>
<rect x="101" y="330" width="2" height="2" fill="#B8CCE0"/>
<rect x="113" y="330" width="2" height="2" fill="#B8CCE0"/>
<rect x="125" y="330" width="2" height="2" fill="#B8CCE0"/>
<rect x="137" y="330" width="2" height="2" fill="#B8CCE0"/>
<rect x="149" y="330" width="2" height="2" fill="#B8CCE0"/>
<rect x="161" y="330" width="2" height="2" fill="#B8CCE0"/>
<rect x="173" y="330" width="2" height="2" fill="#B8CCE0"/>
<rect x="185" y="330" width="2" height="2" fill="#B8CCE0"/>
<rect x="197" y="330" width="2" height="2" fill="#B8CCE0"/>
<rect x="209" y="330" width="2" height="2" fill="#B8CCE0"/>
<rect x="221" y="330" width="2" height="2" fill="#B8CCE0"/>
<rect x="233" y="330" width="2" height="2" fill="#B8CCE0"/>
<rect x="245" y="330" width="2" height="2" fill="#B8CCE0"/>
<rect x="257" y="330" width="2" height="2" fill="#B8CCE0"/>
<rect x="5" y="345" width="2" height="2" fill="#B8CCE0"/>
<rect x="17" y="345" width="2" height="2" fill="#B8CCE0"/>
<rect x="29" y="345" width="2" height="2" fill="#B8CCE0"/>
<rect x="41" y="345" width="2" height="2" fill="#B8CCE0"/>
<rect x="53" y="345" width="2" height="2" fill="#B8CCE0"/>
<rect x="65" y="345" width="2" height="2" fill="#B8CCE0"/>
<rect x="77" y="345" width="2" height="2" fill="#B8CCE0"/>
<rect x="89" y="345" width="2" height="2" fill="#B8CCE0"/>
<rect x="101" y="345" width="2" height="2" fill="#B8CCE0"/>
<rect x="113" y="345" width="2" height="2" fill="#B8CCE0"/>
<rect x="125" y="345" width="2" height="2" fill="#B8CCE0"/>
<rect x="137" y="345" width="2" height="2" fill="#B8CCE0"/>
<rect x="149" y="345" width="2" height="2" fill="#B8CCE0"/>
<rect x="161" y="345" width="2" height="2" fill="#B8CCE0"/>
<rect x="173" y="345" width="2" height="2" fill="#B8CCE0"/>
<rect x="185" y="345" width="2" height="2" fill="#B8CCE0"/>
<rect x="197" y="345" width="2" height="2" fill="#B8CCE0"/>
<rect x="209" y="345" width="2" height="2" fill="#B8CCE0"/>
<rect x="221" y="345" width="2" height="2" fill="#B8CCE0"/>
<rect x="233" y="345" width="2" height="2" fill="#B8CCE0"/>
<rect x="245" y="345" width="2" height="2" fill="#B8CCE0"/>
<rect x="257" y="345" width="2" height="2" fill="#B8CCE0"/>
</g>
<path d="M250.154 218.791L250.256 218.655C250.299 218.632 250.34 218.603 250.378 218.565C251.685 217.288 253.476 216.5 255.453 216.5H278.68C282.682 216.5 285.922 219.729 285.922 223.707V246.827C285.922 250.805 282.682 254.034 278.68 254.034C261.302 254.034 247.211 268.058 247.211 285.361L247.211 293.069V323.896C247.211 327.874 243.971 331.103 239.969 331.103H216.742C212.74 331.103 209.5 327.874 209.5 323.896L209.5 300.775C209.5 299.954 209.638 299.165 209.892 298.431C209.907 298.388 209.916 298.346 209.919 298.305L210.07 297.969L210.07 297.969L210.073 297.961C210.104 297.888 210.136 297.816 210.17 297.744L210.17 297.744L210.173 297.736L212.162 293.283L247.334 223.072C247.869 222.004 248.5 220.986 249.219 220.032L249.234 220.012L249.247 219.99C249.499 219.574 249.793 219.185 250.122 218.829L250.139 218.811L250.154 218.791ZM250.48 218.358C250.481 218.357 250.481 218.356 250.481 218.355C250.481 218.356 250.481 218.357 250.48 218.358L250.48 218.358ZM209.664 298.687C209.662 298.689 209.66 298.69 209.657 298.692C209.66 298.69 209.662 298.689 209.664 298.687L209.664 298.687ZM289.284 256.916L289.307 256.895L289.327 256.872L291.047 254.874L325.468 220.418L328.076 218.309L328.084 218.303L328.091 218.296C329.367 217.178 331.041 216.5 332.875 216.5H356.102C360.104 216.5 363.344 219.729 363.344 223.707V246.827C363.344 250.805 360.104 254.034 356.102 254.034H345.263L332.797 254.034L332.792 254.034C328.285 254.079 324.64 257.727 324.633 262.229V262.229L324.633 262.24V262.241L324.633 274.572V293.068V323.896C324.633 327.874 321.393 331.103 317.391 331.103H294.164C290.162 331.103 286.922 327.874 286.922 323.896V293.068V262.241C286.922 260.132 287.832 258.235 289.284 256.916ZM344.789 312.733C344.789 302.37 353.229 293.966 363.644 293.966C374.06 293.966 382.5 302.37 382.5 312.733C382.5 323.096 374.06 331.5 363.644 331.5C353.229 331.5 344.789 323.096 344.789 312.733Z" stroke="#B8CCE0"/>
</svg>
