<svg width="42" height="28" viewBox="0 0 42 28" fill="none" xmlns="http://www.w3.org/2000/svg">
<path fill-rule="evenodd" clip-rule="evenodd" d="M9.90348 0.53294C10.2407 0.203309 10.7029 0 11.2128 0H16.8193C17.8514 0 18.6881 0.832873 18.6881 1.86027V7.4411C18.6881 8.4685 17.8514 9.30137 16.8193 9.30137C12.6909 9.30137 9.34412 12.6328 9.34406 16.7423L9.34404 18.6029V26.0438C9.34404 27.0712 8.50734 27.9041 7.47523 27.9041H1.86881C0.836693 27.9041 0 27.0712 0 26.0438L3.26753e-07 20.463C3.26753e-07 20.2511 0.0356085 20.0474 0.101195 19.8576C0.101759 19.856 0.0999661 19.8545 0.0984784 19.8554C0.096923 19.8563 0.0950901 19.8547 0.0958268 19.8531L0.147961 19.7363C0.15601 19.7175 0.164363 19.6988 0.173014 19.6802L0.654083 18.6029L9.14502 1.65297C9.27743 1.38866 9.4336 1.13682 9.61162 0.900533C9.67674 0.793118 9.75245 0.692786 9.83732 0.600974L9.89309 0.526963C9.89517 0.524195 9.89954 0.526497 9.89841 0.52977C9.89737 0.532812 9.90118 0.535193 9.90348 0.53294ZM19.7159 9.30137L19.2978 9.78689C18.9232 10.1271 18.6881 10.617 18.6881 11.1616V18.6027V26.0438C18.6881 27.0712 19.5248 27.9041 20.5569 27.9041H26.1633C27.1954 27.9041 28.0321 27.0712 28.0321 26.0438V18.6027V14.1381L28.0321 11.1616L28.0321 11.1588C28.0336 10.1389 28.8596 9.31149 29.882 9.30137H32.891H35.5073C36.5395 9.30137 37.3762 8.4685 37.3762 7.4411V1.86027C37.3762 0.832873 36.5395 0 35.5073 0H29.9009C29.4278 0 28.9958 0.174999 28.6666 0.463515L28.0321 0.976644L19.7159 9.30137ZM37.328 18.6986C34.7477 18.6986 32.656 20.7808 32.656 23.3493C32.656 25.9178 34.7477 28 37.328 28C39.9083 28 42 25.9178 42 23.3493C42 20.7808 39.9083 18.6986 37.328 18.6986Z" fill="url(#paint0_linear_135_2082)"/>
<defs>
<linearGradient id="paint0_linear_135_2082" x1="2" y1="9" x2="37.5351" y2="7.55886" gradientUnits="userSpaceOnUse">
<stop stop-color="#BECCFF"/>
<stop offset="0.425752" stop-color="#9AAAE0"/>
<stop offset="1" stop-color="#87C5FF"/>
</linearGradient>
</defs>
</svg>
