<svg width="30" height="30" viewBox="0 0 30 30" fill="none" xmlns="http://www.w3.org/2000/svg">
<path fill-rule="evenodd" clip-rule="evenodd" d="M27.4286 15C27.4286 21.8641 21.8641 27.4286 15 27.4286C8.13589 27.4286 2.57143 21.8641 2.57143 15C2.57143 8.13589 8.13589 2.57143 15 2.57143C21.8641 2.57143 27.4286 8.13589 27.4286 15ZM30 15C30 23.2843 23.2843 30 15 30C6.71573 30 0 23.2843 0 15C0 6.71573 6.71573 0 15 0C23.2843 0 30 6.71573 30 15ZM8.01727 14.6969L12.554 10.1601C12.824 9.89016 13.2856 10.0814 13.2856 10.4632V13.2857C13.2856 13.5224 13.4775 13.7142 13.7142 13.7142H22.2856C22.5223 13.7142 22.7142 13.9061 22.7142 14.1428V16.2857C22.7142 16.5224 22.5223 16.7142 22.2856 16.7142H13.7142C13.4775 16.7142 13.2856 16.9061 13.2856 17.1428V19.5367C13.2856 19.9185 12.824 20.1098 12.554 19.8398L8.01727 15.303C7.8499 15.1356 7.8499 14.8643 8.01727 14.6969Z" fill="#9AAAE0"/>
</svg>
