<svg width="22" height="22" viewBox="0 0 22 22" fill="none" xmlns="http://www.w3.org/2000/svg">
<path fill="white" opacity=".9" d="M3.36111 0C1.51569 0 0 1.51569 0 3.36111V18.6389C0 20.4843 1.51569 22 3.36111 22H18.6389C20.4843 22 22 20.4843 22 18.6389V3.36111C22 1.51569 20.4843 0 18.6389 0H3.36111ZM3.36111 1.83333H18.6389C19.4934 1.83333 20.1667 2.50664 20.1667 3.36111V18.6389C20.1667 19.4934 19.4934 20.1667 18.6389 20.1667H3.36111C2.50664 20.1667 1.83333 19.4934 1.83333 18.6389V3.36111C1.83333 2.50664 2.50664 1.83333 3.36111 1.83333ZM11 4.88889C7.63578 4.88889 4.88889 7.63579 4.88889 11C4.88889 14.3642 7.63578 17.1111 11 17.1111C14.3642 17.1111 17.1111 14.3642 17.1111 11C17.1111 7.63579 14.3642 4.88889 11 4.88889ZM11 6.72222C13.3734 6.72222 15.2778 8.62659 15.2778 11C15.2778 13.3734 13.3734 15.2778 11 15.2778C8.62659 15.2778 6.72222 13.3734 6.72222 11C6.72222 8.62659 8.62659 6.72222 11 6.72222ZM10.3602 8.65462C10.3123 8.65784 10.2642 8.66811 10.2158 8.68446C9.08221 9.06824 8.32115 10.2602 8.6212 11.5753C8.82287 12.459 9.53984 13.1771 10.4235 13.3788C11.7386 13.6789 12.9318 12.9184 13.3155 11.7842C13.4469 11.398 13.1353 11 12.7271 11H11.6111C11.2738 11 11 10.7262 11 10.3889V9.27289C11 8.9157 10.6955 8.63213 10.3602 8.65462Z"/>
</svg>
