<svg width="22" height="22" viewBox="0 0 22 22" fill="none" xmlns="http://www.w3.org/2000/svg">
<path d="M6.325 0C5.06 0 3.94874 0.659823 3.31074 1.65525C3.39874 1.64975 3.487 1.64988 3.575 1.64988H16.225C18.502 1.64988 20.35 3.49774 20.35 5.77457V14.5739C20.35 14.6619 20.3501 14.7502 20.3446 14.8382C21.3401 14.2002 22 13.089 22 11.8241V5.77457C22 2.59031 19.4095 0 16.225 0H6.325ZM3.575 2.7498C1.61043 2.7498 0 4.36011 0 6.32453V14.5739C0 16.5383 1.61043 18.1487 3.575 18.1487H3.85V20.6428C3.85 21.7159 5.166 22.3871 6.03389 21.7556L10.9936 18.1487H15.675C17.6396 18.1487 19.25 16.5383 19.25 14.5739V6.32453C19.25 4.36011 17.6396 2.7498 15.675 2.7498H3.575ZM3.575 4.39968H15.675C16.7475 4.39968 17.6 5.25208 17.6 6.32453V14.5739C17.6 15.6464 16.7475 16.4988 15.675 16.4988H10.725C10.5505 16.4988 10.3805 16.554 10.2395 16.6567L5.5 20.1036V17.3237C5.49998 17.1049 5.41305 16.8951 5.25834 16.7404C5.10363 16.5857 4.8938 16.4988 4.675 16.4988H3.575C2.50247 16.4988 1.65 15.6464 1.65 14.5739V6.32453C1.65 6.19048 1.66327 6.05949 1.68867 5.93355C1.8665 5.05193 2.63653 4.39968 3.575 4.39968Z" fill="url(#paint0_linear_676_5091)"/>
<defs>
<linearGradient id="paint0_linear_676_5091" x1="41" y1="22" x2="-4" y2="3.82012e-07" gradientUnits="userSpaceOnUse">
<stop stop-color="#B7DBFF"/>
<stop offset="1" stop-color="#8F9BB3"/>
</linearGradient>
</defs>
</svg>
