<svg width="22" height="22" viewBox="0 0 22 22" fill="none" xmlns="http://www.w3.org/2000/svg">
<g clip-path="url(#clip0_919_6992)">
<path d="M8.85908 0.733473C8.15036 0.733473 7.46691 0.837562 6.81155 1.01445C6.79927 1.00986 6.78839 1.00246 6.77607 0.997981L6.76673 1.02608C3.29444 1.98535 0.732422 5.26129 0.732422 9.16673C0.732422 13.0907 3.31877 16.3793 6.81621 17.3209H6.81715C7.47079 17.4968 8.15241 17.6 8.85908 17.6C11.4806 17.6 13.8033 16.3053 15.2883 14.3048C15.8711 16.2105 17.5948 17.6 19.6187 17.6H22.0052C22.1002 17.6014 22.1945 17.5832 22.2827 17.5464C22.3709 17.5096 22.4511 17.455 22.5188 17.3858C22.5865 17.3166 22.6402 17.2341 22.6769 17.1431C22.7135 17.0521 22.7324 16.9545 22.7324 16.8559C22.7324 16.7573 22.7135 16.6596 22.6769 16.5687C22.6402 16.4777 22.5865 16.3952 22.5188 16.326C22.4511 16.2567 22.3709 16.2021 22.2827 16.1654C22.1945 16.1286 22.1002 16.1104 22.0052 16.1118H19.6187C18.1418 16.1118 16.918 15.0578 16.5964 13.6314H17.9446C18.0396 13.6328 18.134 13.6146 18.2222 13.5778C18.3103 13.541 18.3906 13.4864 18.4583 13.4172C18.5259 13.348 18.5797 13.2655 18.6163 13.1745C18.653 13.0835 18.6719 12.9859 18.6719 12.8873C18.6719 12.7887 18.653 12.691 18.6163 12.6001C18.5797 12.5091 18.5259 12.4266 18.4583 12.3574C18.3906 12.2881 18.3103 12.2335 18.2222 12.1968C18.134 12.16 18.0396 12.1418 17.9446 12.1432H16.5114V10.903C16.5114 10.2265 15.9682 9.66281 15.3163 9.66281H15.1277C14.6797 9.66281 14.4435 9.22828 14.674 8.82956L16.2295 6.13894C16.4182 5.81257 16.4961 5.46685 16.5236 5.15163C16.6667 3.50629 17.9898 2.22169 19.6187 2.22169H22.0052C22.1002 2.22309 22.1945 2.20487 22.2827 2.1681C22.3709 2.13133 22.4511 2.07675 22.5188 2.00751C22.5865 1.93827 22.6402 1.85577 22.6769 1.7648C22.7135 1.67383 22.7324 1.5762 22.7324 1.47758C22.7324 1.37897 22.7135 1.28134 22.6769 1.19037C22.6402 1.09939 22.5865 1.01689 22.5188 0.947658C22.4511 0.878422 22.3709 0.823834 22.2827 0.787064C22.1945 0.750295 22.1002 0.732078 22.0052 0.733473H19.6187C17.5982 0.733473 15.8802 2.11574 15.2949 4.01803C13.8084 2.02054 11.4789 0.733473 8.85908 0.733473ZM8.85908 2.22169C11.3893 2.22169 13.5904 3.68911 14.7272 5.84439L13.4434 8.06413C12.6863 9.37406 13.6186 11.0931 15.0773 11.1365V11.6965C14.1005 14.2764 11.6875 16.1118 8.85908 16.1118C8.7696 16.1118 8.68256 16.1018 8.59392 16.0982C9.31962 15.2901 9.77296 14.2186 9.80956 13.0404C9.82755 12.9507 9.82945 12.8585 9.81516 12.7681V11.1355C11.2732 11.0912 12.205 9.37369 11.4481 8.06413L9.89266 5.37351C9.84616 5.29309 9.81016 5.17497 9.79649 5.01792C9.70314 3.9442 9.2548 2.98108 8.58365 2.23623C8.6757 2.23231 8.76613 2.22169 8.85908 2.22169ZM6.71911 2.59278C7.6268 3.08882 8.27105 4.03683 8.36797 5.15163C8.39541 5.46685 8.47338 5.81257 8.66208 6.13894L10.2185 8.82956C10.449 9.22828 10.2119 9.66281 9.76381 9.66281H9.57614C8.92429 9.66281 8.38104 10.2265 8.38104 10.903V12.1432H6.70791C6.61289 12.1418 6.51855 12.16 6.43038 12.1968C6.3422 12.2335 6.26195 12.2881 6.19428 12.3574C6.12661 12.4266 6.07288 12.5091 6.0362 12.6001C5.99952 12.691 5.98064 12.7887 5.98064 12.8873C5.98064 12.9859 5.99952 13.0835 6.0362 13.1745C6.07288 13.2655 6.12661 13.348 6.19428 13.4172C6.26195 13.4864 6.3422 13.541 6.43038 13.5778C6.51855 13.6146 6.61289 13.6328 6.70791 13.6314H8.28861C8.0792 14.5503 7.49945 15.313 6.71631 15.7397C4.07505 14.8097 2.16654 12.218 2.16654 9.16673C2.16654 6.11436 4.0764 3.52191 6.71911 2.59278ZM5.99085 6.19029C5.73728 6.19029 5.4941 6.29482 5.3148 6.48088C5.1355 6.66694 5.03477 6.9193 5.03477 7.18244C5.03477 7.44557 5.1355 7.69793 5.3148 7.88399C5.4941 8.07005 5.73728 8.17458 5.99085 8.17458C6.24442 8.17458 6.4876 8.07005 6.6669 7.88399C6.8462 7.69793 6.94693 7.44557 6.94693 7.18244C6.94693 6.9193 6.8462 6.66694 6.6669 6.48088C6.4876 6.29482 6.24442 6.19029 5.99085 6.19029ZM18.8979 6.19029C18.6443 6.19029 18.4011 6.29482 18.2218 6.48088C18.0425 6.66694 17.9418 6.9193 17.9418 7.18244C17.9418 7.44557 18.0425 7.69793 18.2218 7.88399C18.4011 8.07005 18.6443 8.17458 18.8979 8.17458C19.1515 8.17458 19.3946 8.07005 19.5739 7.88399C19.7532 7.69793 19.854 7.44557 19.854 7.18244C19.854 6.9193 19.7532 6.66694 19.5739 6.48088C19.3946 6.29482 19.1515 6.19029 18.8979 6.19029Z" fill="white"/>
</g>
<defs>
<clipPath id="clip0_919_6992">
<rect width="22" height="22" fill="white"/>
</clipPath>
</defs>
</svg>
