<svg width="27" height="27" viewBox="0 0 27 27" fill="none" xmlns="http://www.w3.org/2000/svg">
<path d="M13.5 2.24341C12.6645 2.24341 11.8296 2.43882 11.0654 2.83008C11.0647 2.83044 11.064 2.83081 11.0632 2.83118L4.49011 6.21497C3.46166 6.74463 2.8125 7.80867 2.8125 8.96594V18.0341C2.8125 19.191 3.46092 20.2547 4.49011 20.7839L11.0632 24.1688C11.0636 24.1692 11.064 24.1696 11.0643 24.1699C12.5926 24.9524 14.4063 24.9524 15.9346 24.1699C15.9353 24.1696 15.936 24.1692 15.9368 24.1688L22.5099 20.7839C23.5383 20.2543 24.1864 19.191 24.1864 18.0341V8.96594C24.1864 7.8093 23.5386 6.74547 22.5099 6.21606H22.5088L15.9368 2.83118C15.9364 2.83081 15.936 2.83044 15.9357 2.83008C15.1715 2.43882 14.3355 2.24341 13.5 2.24341ZM13.5 3.93091C14.0713 3.93091 14.6432 4.06501 15.1666 4.33301L21.7365 7.7157C21.7368 7.71606 21.7372 7.71643 21.7375 7.7168C22.2069 7.95815 22.4989 8.43761 22.4989 8.96594V18.0341C22.4989 18.5624 22.2065 19.0422 21.7365 19.2843L15.1655 22.667C14.1194 23.2026 12.8819 23.2029 11.8356 22.6681L11.8334 22.667L5.26245 19.2843C5.26245 19.2839 5.26245 19.2836 5.26245 19.2832C4.79311 19.0419 4.5 18.5624 4.5 18.0341V8.96594C4.5 8.43684 4.7924 7.95778 5.26245 7.7157L11.8345 4.33301C12.3579 4.06501 12.9287 3.93091 13.5 3.93091ZM13.5 6.75C13.127 6.75 12.7694 6.83889 12.5056 6.99713C12.2419 7.15536 12.0938 7.36997 12.0938 7.59375C12.0938 7.81753 12.2419 8.03214 12.5056 8.19037C12.7694 8.34861 13.127 8.4375 13.5 8.4375C13.873 8.4375 14.2306 8.34861 14.4944 8.19037C14.7581 8.03214 14.9062 7.81753 14.9062 7.59375C14.9062 7.36997 14.7581 7.15536 14.4944 6.99713C14.2306 6.83889 13.873 6.75 13.5 6.75ZM6.45227 8.15076C6.26302 8.15237 6.07981 8.21756 5.93208 8.33585C5.78434 8.45413 5.68066 8.61865 5.63769 8.80296C5.59471 8.98727 5.61495 9.18068 5.69514 9.3521C5.77533 9.52353 5.91082 9.66302 6.07983 9.74817L11.0479 12.33C11.5584 12.5951 12.1025 12.7639 12.6562 12.8529V21.0938C12.6547 21.2056 12.6753 21.3166 12.717 21.4203C12.7587 21.5241 12.8206 21.6185 12.8991 21.6981C12.9776 21.7778 13.0712 21.841 13.1743 21.8841C13.2775 21.9273 13.3882 21.9495 13.5 21.9495C13.6118 21.9495 13.7225 21.9273 13.8257 21.8841C13.9288 21.841 14.0224 21.7778 14.1009 21.6981C14.1794 21.6185 14.2413 21.5241 14.283 21.4203C14.3247 21.3166 14.3453 21.2056 14.3438 21.0938V12.8529C14.8971 12.7639 15.4408 12.5949 15.951 12.33C15.9514 12.33 15.9518 12.33 15.9521 12.33L20.9202 9.74927C21.1189 9.64612 21.2685 9.46826 21.3361 9.25481C21.4036 9.04136 21.3837 8.8098 21.2805 8.61108C21.1774 8.41237 20.9995 8.26276 20.7861 8.19518C20.5726 8.1276 20.3411 8.14759 20.1423 8.25073L15.1732 10.8325C14.6595 11.0991 14.0993 11.2339 13.5385 11.2401C13.5213 11.2389 13.504 11.2381 13.4868 11.2379C13.4773 11.2385 13.4678 11.2392 13.4583 11.2401C12.8979 11.2339 12.339 11.0991 11.8257 10.8325L6.85767 8.25183C6.73314 8.18469 6.59374 8.14993 6.45227 8.15076ZM6.46875 11.25C6.24497 11.25 6.03036 11.3982 5.87213 11.6619C5.71389 11.9256 5.625 12.2833 5.625 12.6562C5.625 13.0292 5.71389 13.3869 5.87213 13.6506C6.03036 13.9143 6.24497 14.0625 6.46875 14.0625C6.69253 14.0625 6.90714 13.9143 7.06537 13.6506C7.22361 13.3869 7.3125 13.0292 7.3125 12.6562C7.3125 12.2833 7.22361 11.9256 7.06537 11.6619C6.90714 11.3982 6.69253 11.25 6.46875 11.25ZM19.9688 11.8125C19.745 11.8125 19.5304 11.9607 19.3721 12.2244C19.2139 12.4881 19.125 12.8458 19.125 13.2188C19.125 13.5917 19.2139 13.9494 19.3721 14.2131C19.5304 14.4768 19.745 14.625 19.9688 14.625C20.1925 14.625 20.4071 14.4768 20.5654 14.2131C20.7236 13.9494 20.8125 13.5917 20.8125 13.2188C20.8125 12.8458 20.7236 12.4881 20.5654 12.2244C20.4071 11.9607 20.1925 11.8125 19.9688 11.8125ZM8.71875 14.625C8.49497 14.625 8.28036 14.7732 8.12213 15.0369C7.96389 15.3006 7.875 15.6583 7.875 16.0312C7.875 16.4042 7.96389 16.7619 8.12213 17.0256C8.28036 17.2893 8.49497 17.4375 8.71875 17.4375C8.94253 17.4375 9.15714 17.2893 9.31537 17.0256C9.4736 16.7619 9.5625 16.4042 9.5625 16.0312C9.5625 15.6583 9.4736 15.3006 9.31537 15.0369C9.15714 14.7732 8.94253 14.625 8.71875 14.625ZM17.1562 16.875C16.9325 16.875 16.7179 17.0232 16.5596 17.2869C16.4014 17.5506 16.3125 17.9083 16.3125 18.2812C16.3125 18.6542 16.4014 19.0119 16.5596 19.2756C16.7179 19.5393 16.9325 19.6875 17.1562 19.6875C17.38 19.6875 17.5946 19.5393 17.7529 19.2756C17.9111 19.0119 18 18.6542 18 18.2812C18 17.9083 17.9111 17.5506 17.7529 17.2869C17.5946 17.0232 17.38 16.875 17.1562 16.875ZM10.9688 18C10.745 18 10.5304 18.1482 10.3721 18.4119C10.2139 18.6756 10.125 19.0333 10.125 19.4062C10.125 19.7792 10.2139 20.1369 10.3721 20.4006C10.5304 20.6643 10.745 20.8125 10.9688 20.8125C11.1925 20.8125 11.4071 20.6643 11.5654 20.4006C11.7236 20.1369 11.8125 19.7792 11.8125 19.4062C11.8125 19.0333 11.7236 18.6756 11.5654 18.4119C11.4071 18.1482 11.1925 18 10.9688 18Z" fill="white"/>
</svg>
