<svg width="24" height="24" viewBox="0 0 24 24" fill="none" xmlns="http://www.w3.org/2000/svg">
<path d="M6.74067 4.13776C6.64977 4.13653 6.55951 4.15257 6.47515 4.18495C6.39079 4.21732 6.31401 4.26538 6.24927 4.32634C6.18453 4.3873 6.13312 4.45995 6.09804 4.54004C6.06295 4.62014 6.04488 4.7061 6.04488 4.79293C6.04488 4.87976 6.06295 4.96572 6.09804 5.04582C6.13312 5.12592 6.18453 5.19856 6.24927 5.25952C6.31401 5.32048 6.39079 5.36854 6.47515 5.40091C6.55951 5.43329 6.64977 5.44933 6.74067 5.4481H17.2597C17.3506 5.44933 17.4409 5.43329 17.5253 5.40091C17.6096 5.36854 17.6864 5.32048 17.7511 5.25952C17.8159 5.19856 17.8673 5.12592 17.9024 5.04582C17.9375 4.96572 17.9555 4.87976 17.9555 4.79293C17.9555 4.7061 17.9375 4.62014 17.9024 4.54004C17.8673 4.45995 17.8159 4.3873 17.7511 4.32634C17.6864 4.26538 17.6096 4.21732 17.5253 4.18495C17.4409 4.15257 17.3506 4.13653 17.2597 4.13776H6.74067ZM5.36862 6.32166C5.27772 6.32043 5.18746 6.33647 5.1031 6.36885C5.01874 6.40122 4.94196 6.44928 4.87722 6.51024C4.81248 6.5712 4.76107 6.64384 4.72599 6.72394C4.6909 6.80404 4.67283 6.89 4.67283 6.97683C4.67283 7.06366 4.6909 7.14962 4.72599 7.22972C4.76107 7.30982 4.81248 7.38246 4.87722 7.44342C4.94196 7.50438 5.01874 7.55244 5.1031 7.58481C5.18746 7.61719 5.27772 7.63323 5.36862 7.632H18.6318C18.7227 7.63323 18.8129 7.61719 18.8973 7.58481C18.9817 7.55244 19.0584 7.50438 19.1232 7.44342C19.1879 7.38246 19.2393 7.30982 19.2744 7.22972C19.3095 7.14962 19.3276 7.06366 19.3276 6.97683C19.3276 6.89 19.3095 6.80404 19.2744 6.72394C19.2393 6.64384 19.1879 6.5712 19.1232 6.51024C19.0584 6.44928 18.9817 6.40122 18.8973 6.36885C18.8129 6.33647 18.7227 6.32043 18.6318 6.32166H5.36862ZM4.91127 8.50556C4.03547 8.50556 3.31055 9.19787 3.31055 10.0343V18.3331C3.31055 19.1695 4.03547 19.8618 4.91127 19.8618H19.0891C19.9649 19.8618 20.6899 19.1695 20.6899 18.3331V10.0343C20.6899 9.19787 19.9649 8.50556 19.0891 8.50556H4.91127ZM4.91127 9.8159H19.0891C19.2241 9.8159 19.3178 9.90542 19.3178 10.0343V18.3331C19.3178 18.462 19.2241 18.5515 19.0891 18.5515H4.91127C4.77633 18.5515 4.6826 18.462 4.6826 18.3331V10.0343C4.6826 9.90542 4.77633 9.8159 4.91127 9.8159Z" fill="#8F9BB3"/>
</svg>
