<svg width="90" height="87" viewBox="0 0 90 87" fill="none" xmlns="http://www.w3.org/2000/svg" xmlns:xlink="http://www.w3.org/1999/xlink">
<rect x="3.30218" y="3.30218" width="82.7008" height="79.6856" rx="12.6978" fill="#1D1D1D" stroke="url(#paint0_linear_2572_6853)" stroke-width="6.60436"/>
<rect x="2.83805" y="2.83723" width="83.6305" height="80.6153" rx="14.742" fill="#161616"/>
<rect x="2.83805" y="2.83723" width="83.6305" height="80.6153" rx="14.742" stroke="url(#paint1_linear_2572_6853)" stroke-width="2.51595"/>
<rect x="2.83805" y="2.83723" width="83.6305" height="80.6153" rx="14.742" stroke="url(#paint2_linear_2572_6853)" stroke-opacity="0.2" stroke-width="2.51595"/>
<rect x="13.2638" y="12.8331" width="62.7775" height="60.6239" rx="24.5305" fill="#272727" stroke="url(#paint3_linear_2572_6853)" stroke-width="1.25797"/>
<rect x="13.2638" y="12.8331" width="62.7775" height="60.6239" rx="7.37101" fill="#0F0F0F" stroke="url(#paint4_linear_2572_6853)" stroke-width="1.25797"/>
<rect x="20.629" y="20.629" width="46.742" height="44.742" rx="5.37101" fill="#161616" stroke="url(#paint5_linear_2572_6853)" stroke-width="1.25797"/>
<rect x="20" y="20" width="48" height="23" rx="4" fill="url(#paint6_linear_2572_6853)"/>
<mask id="mask0_2572_6853" style="mask-type:alpha" maskUnits="userSpaceOnUse" x="12" y="12" width="65" height="63">
<rect x="13.2638" y="12.8336" width="62.7775" height="60.6239" rx="8.37101" fill="#0F0F0F"/>
<rect x="13.2638" y="12.8336" width="62.7775" height="60.6239" rx="8.37101" fill="url(#pattern0)" fill-opacity="0.2"/>
<rect x="13.2638" y="12.8336" width="62.7775" height="60.6239" rx="8.37101" stroke="url(#paint8_linear_2572_6853)" stroke-width="1.25797"/>
</mask>
<g mask="url(#mask0_2572_6853)">
<g style="mix-blend-mode:hard-light" filter="url(#filter3_f_2572_6853)">
<path d="M28.2524 27.2222C26.5681 26.4949 20.9793 26.7915 18.5389 31.1459C18.1561 32.3261 17.3235 35.5288 17.0556 38.8975C16.7876 42.2661 17.9328 45.6602 18.5389 46.9362C20.5965 49.8072 29.0946 48.1899 28.2524 44.9744C27.1997 40.955 30.3578 28.1313 28.2524 27.2222Z" fill="white" fill-opacity="0.7"/>
</g>
<g style="mix-blend-mode:hard-light" filter="url(#filter4_f_2572_6853)">
<path d="M52.6836 25.0053C53.4116 24.6419 53.1147 23.4363 48.756 22.9099C47.5745 22.8273 44.3686 22.6477 40.9966 22.5899C37.6246 22.5321 34.2271 22.7792 32.9498 22.9099C30.076 23.3538 31.6949 25.1869 34.9136 25.0053C38.937 24.7782 51.7735 25.4594 52.6836 25.0053Z" fill="white"/>
</g>
<g style="mix-blend-mode:hard-light" filter="url(#filter5_f_2572_6853)">
<path d="M23.8445 53.3415C22.8658 53.5359 20.4632 55.3996 20.7316 58.1131C20.9287 58.7624 21.5557 60.4603 22.4865 62.058C23.4174 63.6557 24.9871 64.8274 25.6555 65.2135C27.4694 65.8675 30.759 62.5093 29.3803 61.3241C27.6569 59.8426 25.068 53.0985 23.8445 53.3415Z" fill="white"/>
</g>
<g style="mix-blend-mode:hard-light" filter="url(#filter7_f_2572_6853)">
<path d="M56.491 29.2269C59.0075 28.2174 67.3574 28.6292 71.0034 34.6732C71.5753 36.3115 72.8193 40.757 73.2196 45.4328C73.6199 50.1087 71.909 54.8199 71.0034 56.5911C67.9293 60.5761 55.2328 58.3312 56.491 53.8679C58.0638 48.2888 53.3455 30.4889 56.491 29.2269Z" fill="white" fill-opacity="0.7"/>
</g>
</g>
<defs>
<filter id="filter3_f_2572_6853" x="-15.2661" y="-5.36586" width="76.5419" height="86.0743" filterUnits="userSpaceOnUse" color-interpolation-filters="sRGB">
<feFlood flood-opacity="0" result="BackgroundImageFix"/>
<feBlend mode="normal" in="SourceGraphic" in2="BackgroundImageFix" result="shape"/>
<feGaussianBlur stdDeviation="16.1408" result="effect1_foregroundBlur_2572_6853"/>
</filter>
<filter id="filter4_f_2572_6853" x="15.9451" y="7.06932" width="52.5572" height="33.6078" filterUnits="userSpaceOnUse" color-interpolation-filters="sRGB">
<feFlood flood-opacity="0" result="BackgroundImageFix"/>
<feBlend mode="normal" in="SourceGraphic" in2="BackgroundImageFix" result="shape"/>
<feGaussianBlur stdDeviation="7.75599" result="effect1_foregroundBlur_2572_6853"/>
</filter>
<filter id="filter5_f_2572_6853" x="1.42578" y="34.0499" width="47.5684" height="50.5324" filterUnits="userSpaceOnUse" color-interpolation-filters="sRGB">
<feFlood flood-opacity="0" result="BackgroundImageFix"/>
<feBlend mode="normal" in="SourceGraphic" in2="BackgroundImageFix" result="shape"/>
<feGaussianBlur stdDeviation="9.64258" result="effect1_foregroundBlur_2572_6853"/>
</filter>
<filter id="filter7_f_2572_6853" x="23.1011" y="-3.47998" width="82.4598" height="94.4216" filterUnits="userSpaceOnUse" color-interpolation-filters="sRGB">
<feFlood flood-opacity="0" result="BackgroundImageFix"/>
<feBlend mode="normal" in="SourceGraphic" in2="BackgroundImageFix" result="shape"/>
<feGaussianBlur stdDeviation="16.1408" result="effect1_foregroundBlur_2572_6853"/>
</filter>
<linearGradient id="paint0_linear_2572_6853" x1="-14.2142" y1="-3.58943" x2="91.028" y2="94.9046" gradientUnits="userSpaceOnUse">
<stop stop-color="#484848"/>
<stop offset="1" stop-color="#484848" stop-opacity="0"/>
</linearGradient>
<linearGradient id="paint1_linear_2572_6853" x1="33.9568" y1="-20.3163" x2="-18.0807" y2="84.644" gradientUnits="userSpaceOnUse">
<stop stop-color="#1E1E1E"/>
<stop offset="0.0001" stop-color="#363636"/>
<stop offset="1" stop-color="#9B9B9B" stop-opacity="0"/>
</linearGradient>
<linearGradient id="paint2_linear_2572_6853" x1="-5.16806" y1="1.57925" x2="83.4192" y2="99.4272" gradientUnits="userSpaceOnUse">
<stop stop-color="#9D9090"/>
<stop offset="1" stop-opacity="0"/>
</linearGradient>
<linearGradient id="paint3_linear_2572_6853" x1="-113.211" y1="21.1777" x2="126.707" y2="80.547" gradientUnits="userSpaceOnUse">
<stop stop-color="white"/>
<stop offset="0.773341" stop-color="white" stop-opacity="0"/>
</linearGradient>
<linearGradient id="paint4_linear_2572_6853" x1="-113.211" y1="21.1777" x2="126.707" y2="80.547" gradientUnits="userSpaceOnUse">
<stop stop-color="white"/>
<stop offset="0.773341" stop-color="white" stop-opacity="0"/>
</linearGradient>
<linearGradient id="paint5_linear_2572_6853" x1="5.03093" y1="24.2207" x2="105.164" y2="71.5291" gradientUnits="userSpaceOnUse">
<stop stop-color="white"/>
<stop offset="0.773341" stop-color="white" stop-opacity="0"/>
</linearGradient>
<linearGradient id="paint6_linear_2572_6853" x1="44" y1="20" x2="44" y2="43" gradientUnits="userSpaceOnUse">
<stop/>
<stop offset="1" stop-opacity="0"/>
</linearGradient>
<linearGradient id="paint7_linear_2572_6853" x1="-31.9226" y1="32.3503" x2="84.2421" y2="61.0553" gradientUnits="userSpaceOnUse">
<stop stop-color="white"/>
<stop offset="0.773341" stop-color="white" stop-opacity="0"/>
</linearGradient>
<linearGradient id="paint8_linear_2572_6853" x1="-113.211" y1="21.1782" x2="126.707" y2="80.5475" gradientUnits="userSpaceOnUse">
<stop stop-color="white"/>
<stop offset="0.773341" stop-color="white" stop-opacity="0"/>
</linearGradient>
</defs>
</svg>
